<svg preserveAspectRatio="none" width="100%" height="100%" overflow="visible" style="display: block;" viewBox="0 0 52 31" fill="none" xmlns="http://www.w3.org/2000/svg">
<g id="Group 1">
<path id="Vector" d="M14.9266 0.00511413C14.97 0.00342647 15.0135 0.00173881 15.0582 0C15.4251 0.0700533 15.6986 0.388169 15.9516 0.643475C15.9896 0.681261 16.0275 0.719047 16.0666 0.757978C16.1931 0.884152 16.3192 1.01075 16.4452 1.13734C16.536 1.22809 16.6269 1.3188 16.7177 1.4095C16.964 1.65549 17.2099 1.90185 17.4558 2.14829C17.7129 2.406 17.9704 2.66339 18.2279 2.92083C18.66 3.35296 19.0918 3.78532 19.5235 4.21782C20.0231 4.71839 20.5231 5.21865 21.0232 5.71872C21.504 6.19945 21.9846 6.68035 22.4651 7.16135C22.6698 7.36626 22.8745 7.57112 23.0793 7.77595C23.3201 8.01681 23.5608 8.25782 23.8013 8.49895C23.8898 8.58762 23.9783 8.67624 24.0669 8.76481C24.1874 8.88528 24.3078 9.00592 24.428 9.12662C24.4635 9.162 24.499 9.19738 24.5355 9.23383C24.8196 9.51963 24.8514 9.66556 24.852 10.0579C24.8523 10.1048 24.8526 10.1517 24.8529 10.2001C24.8539 10.3581 24.8544 10.5162 24.8549 10.6743C24.8554 10.7873 24.856 10.9002 24.8566 11.0132C24.8585 11.3851 24.8597 11.757 24.8608 12.1289C24.861 12.1921 24.8612 12.2553 24.8614 12.3205C24.8633 12.9168 24.8648 13.5131 24.8658 14.1095C24.8672 14.8725 24.8696 15.6355 24.8738 16.3986C24.8766 16.9349 24.878 17.4712 24.8785 18.0075C24.8788 18.3279 24.8797 18.6483 24.882 18.9687C24.8842 19.2703 24.8847 19.5718 24.8839 19.8734C24.8839 19.9839 24.8845 20.0945 24.8858 20.205C24.8875 20.3563 24.8869 20.5074 24.8858 20.6587C24.8873 20.7239 24.8873 20.7239 24.8888 20.7904C24.8791 21.3263 24.4593 21.6736 24.1007 22.0294C24.0636 22.0666 24.0265 22.1039 23.9883 22.1423C23.8653 22.2658 23.7418 22.3889 23.6183 22.512C23.5295 22.601 23.4407 22.69 23.3519 22.779C23.1117 23.0198 22.8712 23.2601 22.6305 23.5004C22.3785 23.7521 22.1268 24.0041 21.875 24.2561C21.4525 24.6788 21.0298 25.1012 20.6069 25.5236C20.1178 26.012 19.6291 26.5009 19.1407 26.99C18.7211 27.4101 18.3013 27.83 17.8813 28.2497C17.6305 28.5003 17.3798 28.7509 17.1293 29.0018C16.8941 29.2374 16.6585 29.4727 16.4227 29.7078C16.3362 29.7942 16.2497 29.8807 16.1634 29.9674C16.0457 30.0854 15.9277 30.203 15.8095 30.3205C15.7581 30.3723 15.7581 30.3723 15.7057 30.4251C15.4699 30.6586 15.2886 30.8091 14.9527 30.8238C14.4021 30.8076 14.0375 30.3584 13.679 29.9877C13.5536 29.8602 13.4258 29.7423 13.2901 29.6262C13.1264 29.4862 12.9726 29.3408 12.8215 29.1873C12.6759 29.0397 12.5286 28.8984 12.3714 28.7633C12.1273 28.5527 11.8901 28.3351 11.6536 28.1161C11.597 28.0642 11.597 28.0642 11.5393 28.0112C10.794 27.3182 10.794 27.3182 10.7721 26.8887C10.7773 26.4315 11.0532 26.1917 11.3597 25.8845C11.395 25.8503 11.4303 25.8161 11.4667 25.7808C11.5702 25.6777 11.6661 25.5711 11.7614 25.4605C12.0358 25.1426 12.3226 24.8361 12.6081 24.5283C12.76 24.3644 12.9116 24.2002 13.0632 24.036C13.0928 24.004 13.1223 23.972 13.1527 23.939C13.3514 23.7237 13.5497 23.5081 13.7476 23.2921C13.7745 23.2627 13.8015 23.2333 13.8292 23.203C13.9617 23.0584 14.094 22.9137 14.2262 22.7688C14.577 22.3848 14.9316 22.0045 15.2877 21.6255C15.6192 21.2724 15.9466 20.916 16.273 20.5584C16.3821 20.4393 16.4912 20.3203 16.6003 20.2013C16.6547 20.1419 16.7091 20.0826 16.7635 20.0232C16.8741 19.9026 16.9848 19.782 17.0955 19.6615C17.7205 18.9857 17.7205 18.9857 18.3224 18.2895C18.3727 18.2331 18.4231 18.1766 18.4749 18.1184C18.5142 18.1184 18.5535 18.1184 18.5939 18.1184C18.6142 18.0706 18.6142 18.0706 18.6348 18.0217C18.806 17.7119 19.0599 17.4739 19.308 17.2258C19.3571 17.1669 19.4062 17.108 19.4568 17.0473C19.5982 16.8776 19.7452 16.7254 19.9031 16.5712C20.3076 16.1752 20.6817 15.7647 21.0338 15.3215C21.0068 15.2933 20.9797 15.265 20.9519 15.236C20.8301 15.1085 20.7088 14.9807 20.5875 14.8528C20.5449 14.8084 20.5024 14.764 20.4585 14.7182C20.3981 14.6544 20.3981 14.6544 20.3364 14.5892C20.299 14.55 20.2616 14.5107 20.2231 14.4702C20.1412 14.3693 20.1412 14.3693 20.1412 14.2503C20.1071 14.2363 20.0731 14.2224 20.038 14.208C19.8719 14.1135 19.7748 14.0008 19.6502 13.856C19.4472 13.6244 19.2391 13.4036 19.0175 13.1898C18.9064 13.0755 18.802 12.9586 18.6976 12.8383C18.4762 12.5835 18.2461 12.3379 18.0137 12.0931C17.6851 11.7454 17.3595 11.3955 17.0371 11.0421C16.7962 10.7789 16.5511 10.5196 16.3066 10.2596C16.0753 10.0134 15.8459 9.76541 15.6184 9.51554C15.4176 9.29546 15.2129 9.08207 15.0005 8.87325C14.7632 8.63185 14.5462 8.37122 14.3315 8.10962C14.1675 7.91543 13.9892 7.74002 13.8084 7.56152C13.7199 7.47403 13.6314 7.38642 13.543 7.2988C13.5138 7.27007 13.4846 7.24134 13.4544 7.21174C13.2498 7.00841 13.0591 6.79595 12.8703 6.57787C12.6871 6.36929 12.4955 6.16865 12.3045 5.96726C12.2208 5.87872 12.1372 5.79015 12.0536 5.70156C12.0126 5.65808 11.9716 5.61459 11.9293 5.56979C11.7548 5.38439 11.5811 5.1982 11.4081 5.01139C11.3797 4.98092 11.3514 4.95045 11.3222 4.91906C10.7903 4.3434 10.7903 4.3434 10.7795 3.96996C10.7773 3.91995 10.7751 3.86993 10.7728 3.8184C10.8369 3.41142 11.1815 3.14757 11.4713 2.88391C11.557 2.80479 11.6427 2.72568 11.7284 2.64656C11.7718 2.60678 11.8152 2.56699 11.8598 2.526C12.019 2.37961 12.1769 2.23193 12.3348 2.0841C12.6782 1.76242 13.023 1.44213 13.3694 1.12358C13.5359 0.970458 13.7016 0.816607 13.8664 0.661583C13.9013 0.628913 13.9362 0.596244 13.9721 0.562584C14.0388 0.500098 14.1053 0.437403 14.1716 0.374465C14.4146 0.147583 14.5901 0.0110189 14.9266 0.00511413Z" fill="var(--fill-0, #FFFFF7)"/>
<path id="Vector_2" d="M36.8602 0.179863C36.9087 0.178712 36.9571 0.177561 37.0069 0.176376C37.4021 0.251849 37.6919 0.595165 37.9723 0.864227C38.0573 0.944845 38.1423 1.02543 38.2273 1.10599C38.2689 1.14542 38.3104 1.18485 38.3531 1.22547C38.511 1.37465 38.671 1.52126 38.8315 1.66761C39.1435 1.95236 39.4524 2.24041 39.7599 2.53005C39.9695 2.72667 40.1828 2.91731 40.4024 3.10275C40.988 3.60497 40.988 3.60497 41.0506 3.952C41.0624 4.23449 41.0113 4.43138 40.8511 4.66914C40.7229 4.80612 40.5902 4.9372 40.4553 5.06758C40.209 5.30929 39.9864 5.57025 39.7725 5.84074C39.6038 6.0488 39.4094 6.23054 39.2188 6.41841C39.1468 6.48963 39.1468 6.48963 39.0733 6.5623C39.0256 6.60933 38.9778 6.65635 38.9287 6.7048C38.7662 6.87317 38.6131 7.04733 38.4598 7.22401C38.2882 7.41936 38.1099 7.60814 37.9314 7.79713C37.8525 7.88096 37.7737 7.9648 37.6948 8.04865C37.6553 8.09056 37.6159 8.13246 37.5752 8.17564C37.3983 8.36386 37.2223 8.55286 37.0462 8.74185C36.7082 9.10444 36.3686 9.46556 36.0286 9.82637C35.7353 10.1379 35.443 10.4503 35.1512 10.7633C34.8994 11.0334 34.647 11.303 34.3943 11.5723C33.8191 12.1856 33.2446 12.7995 32.675 13.4181C32.3989 13.7175 32.1201 14.0143 31.8413 14.3111C31.4899 14.6855 31.1415 15.0625 30.794 15.4404C30.8719 15.6093 30.958 15.7432 31.0803 15.883C31.109 15.9161 31.1376 15.9492 31.1671 15.9832C31.2436 16.0664 31.3225 16.1474 31.4025 16.2273C31.612 16.437 31.8148 16.6526 32.0176 16.8687C32.0802 16.9353 32.0802 16.9353 32.144 17.0032C32.4039 17.2801 32.6633 17.5573 32.9214 17.8357C32.9498 17.8662 32.9781 17.8966 33.0073 17.928C33.1705 18.1046 33.3223 18.2873 33.4719 18.4754C33.5185 18.5221 33.5652 18.5687 33.6132 18.6168C33.7616 18.7651 33.896 18.9186 34.0298 19.0798C34.1551 19.222 34.29 19.3532 34.4241 19.4871C34.5313 19.6019 34.6379 19.7171 34.7439 19.833C35.0235 20.1373 35.3052 20.4395 35.5882 20.7405C35.9031 21.0757 36.2156 21.4128 36.5257 21.7524C36.6998 21.9427 36.8748 22.132 37.0499 22.3213C37.2573 22.5455 37.4635 22.7707 37.6674 22.9982C37.8789 23.2341 38.0924 23.4681 38.3071 23.7012C38.3366 23.7333 38.3661 23.7654 38.3965 23.7984C38.5293 23.9424 38.6632 24.0831 38.8027 24.2207C39.0003 24.4212 39.1712 24.6398 39.3466 24.8597C39.4836 25.0229 39.6283 25.1696 39.78 25.3191C39.9399 25.4841 40.098 25.6507 40.256 25.8175C40.2976 25.8609 40.3392 25.9043 40.382 25.9491C41.0444 26.6489 41.0444 26.6489 41.0594 26.9891C41.0087 27.3883 40.8329 27.6227 40.5499 27.9003C40.4976 27.9523 40.4454 28.0043 40.3916 28.0579C40.256 28.1756 40.256 28.1756 40.137 28.1756C40.137 28.2148 40.137 28.2541 40.137 28.2946C40.0412 28.389 40.0412 28.389 39.9139 28.4954C39.7758 28.6122 39.6459 28.7266 39.5196 28.8562C39.4229 28.9492 39.4229 28.9492 39.3039 28.9492C39.3039 28.9885 39.3039 29.0277 39.3039 29.0682C39.2311 29.1417 39.2311 29.1417 39.1216 29.2319C38.8229 29.485 38.5391 29.7529 38.2546 30.0218C38.0552 30.2094 37.8529 30.3864 37.6376 30.556C37.586 30.6075 37.5345 30.6591 37.4814 30.7122C37.2923 30.9013 37.1705 30.9903 36.9049 30.9948C36.8609 30.9965 36.817 30.9982 36.7717 31C36.4035 30.9307 36.13 30.6126 35.8762 30.3565C35.8382 30.3187 35.8003 30.2809 35.7612 30.242C35.6347 30.1158 35.5086 29.9892 35.3825 29.8626C35.2917 29.7719 35.2009 29.6812 35.11 29.5905C34.8638 29.3445 34.6179 29.0981 34.372 28.8517C34.1148 28.594 33.8573 28.3366 33.5999 28.0791C33.1678 27.647 32.736 27.2146 32.3043 26.7821C31.8046 26.2816 31.3047 25.7813 30.8046 25.2812C30.3238 24.8005 29.8432 24.3196 29.3627 23.8386C29.158 23.6337 28.9533 23.4288 28.7485 23.224C28.5077 22.9831 28.267 22.7421 28.0265 22.501C27.938 22.4123 27.8494 22.3237 27.7608 22.2351C27.6403 22.1147 27.52 21.994 27.3998 21.8733C27.3466 21.8203 27.3466 21.8203 27.2923 21.7661C27.009 21.4812 26.9765 21.3373 26.9774 20.9461C26.9772 20.8997 26.9771 20.8532 26.977 20.8053C26.9766 20.6488 26.9766 20.4922 26.9767 20.3357C26.9765 20.2238 26.9763 20.1118 26.9761 19.9999C26.9755 19.6952 26.9754 19.3905 26.9754 19.0859C26.9753 18.8316 26.9751 18.5774 26.9749 18.3232C26.9744 17.7234 26.9743 17.1235 26.9743 16.5237C26.9743 15.9048 26.9737 15.2859 26.9728 14.667C26.972 14.136 26.9717 13.6049 26.9717 13.0738C26.9717 12.7565 26.9715 12.4392 26.9709 12.122C26.9703 11.8234 26.9703 11.5248 26.9708 11.2262C26.9708 11.1167 26.9707 11.0072 26.9703 10.8977C26.9699 10.748 26.9701 10.5983 26.9706 10.4486C26.9703 10.4054 26.97 10.3623 26.9697 10.3178C26.9727 9.87456 27.0492 9.57153 27.3582 9.25615C27.3933 9.22183 27.4284 9.1875 27.4646 9.15214C27.5019 9.11449 27.5392 9.07683 27.5776 9.03804C27.7025 8.91238 27.8285 8.78782 27.9544 8.66322C28.0443 8.57322 28.1341 8.48316 28.2239 8.39304C28.4676 8.14868 28.7123 7.90526 28.9572 7.66201C29.2133 7.40733 29.4686 7.15185 29.724 6.89647C30.153 6.46775 30.5826 6.0396 31.0125 5.61183C31.5096 5.11718 32.006 4.62182 32.502 4.12603C33.03 3.59828 33.5584 3.07098 34.087 2.54385C34.2393 2.39189 34.3916 2.23986 34.5438 2.0878C34.783 1.84895 35.0225 1.61042 35.2623 1.37212C35.3502 1.28459 35.4381 1.19695 35.5259 1.10921C35.6456 0.989535 35.7658 0.87023 35.886 0.751015C35.938 0.698733 35.938 0.698733 35.9912 0.645395C36.2506 0.389286 36.4782 0.180466 36.8602 0.179863Z" fill="var(--fill-0, #FFFFF7)"/>
<path id="Vector_3" d="M48.52 0.350862C48.6026 0.348906 48.6026 0.348906 48.6869 0.34691C49.248 0.453179 49.6389 0.797064 50.0282 1.19307C50.0773 1.24199 50.1264 1.29092 50.1769 1.34133C50.2797 1.44415 50.3821 1.54734 50.4841 1.65088C50.6403 1.80914 50.7979 1.96591 50.9557 2.12256C51.0558 2.22301 51.1557 2.32355 51.2556 2.42418C51.3026 2.47087 51.3496 2.51756 51.398 2.56566C51.742 2.91718 51.8763 3.1801 51.8823 3.6797C51.884 3.74276 51.8857 3.80581 51.8874 3.87078C51.8069 4.46739 51.3825 4.81849 50.9711 5.2158C50.9116 5.27413 50.8521 5.33251 50.7927 5.39096C50.6831 5.49861 50.5732 5.60585 50.4629 5.71284C50.3591 5.81405 50.2561 5.91605 50.1536 6.01867C50.0125 6.15946 49.8663 6.29186 49.7177 6.42459C49.1883 6.9033 48.691 7.41643 48.1885 7.92301C48.1206 7.99137 48.1206 7.99137 48.0514 8.06112C48.0022 8.11092 47.9531 8.16073 47.9024 8.21204C47.765 8.34766 47.624 8.47618 47.4791 8.60368C47.1385 8.90841 46.8174 9.23095 46.4967 9.5563C46.1698 9.88794 45.8434 10.2151 45.4896 10.5182C45.2674 10.713 45.0586 10.9215 44.849 11.1296C44.8044 11.173 44.7598 11.2164 44.7138 11.2611C44.6709 11.3037 44.628 11.3463 44.5838 11.3902C44.5453 11.428 44.5069 11.4659 44.4673 11.5049C44.1622 11.8713 44.157 12.202 44.1582 12.659C44.1577 12.726 44.1572 12.793 44.1567 12.8621C44.1553 13.0833 44.1553 13.3045 44.1553 13.5258C44.1549 13.68 44.1545 13.8341 44.154 13.9883C44.1532 14.3115 44.1531 14.6346 44.1534 14.9578C44.1538 15.3301 44.1525 15.7024 44.1502 16.0747C44.1482 16.4342 44.1478 16.7936 44.148 17.153C44.1479 17.3053 44.1474 17.4577 44.1463 17.61C44.145 17.8235 44.1456 18.0369 44.1466 18.2504C44.1458 18.3128 44.145 18.3752 44.1442 18.4395C44.15 18.9494 44.2889 19.3307 44.6296 19.7139C44.7032 19.7783 44.7032 19.7783 44.7783 19.8441C44.8773 19.9433 44.9762 20.0425 45.0751 20.1418C45.3592 20.4269 45.6435 20.7119 45.9279 20.9968C46.0995 21.1686 46.271 21.3406 46.4424 21.5126C46.6089 21.6798 46.7755 21.8468 46.9423 22.0137C47.0056 22.0771 47.0688 22.1405 47.1319 22.204C47.2203 22.2928 47.3089 22.3815 47.3976 22.4701C47.4478 22.5205 47.4981 22.5708 47.5498 22.6227C47.6929 22.7627 47.6929 22.7627 47.853 22.8867C47.9923 22.9984 48.0939 23.1212 48.2053 23.2597C48.2949 23.3613 48.3897 23.445 48.4933 23.5322C48.834 23.8269 49.1519 24.1448 49.4717 24.4617C49.5046 24.4943 49.5375 24.5268 49.5714 24.5604C49.745 24.7324 49.9183 24.9046 50.0916 25.077C50.2343 25.2189 50.3774 25.3604 50.521 25.5015C50.6954 25.673 50.8692 25.8453 51.0424 26.0181C51.1081 26.0834 51.1741 26.1485 51.2404 26.2134C51.333 26.304 51.4245 26.3956 51.5159 26.4875C51.5682 26.5392 51.6204 26.5909 51.6742 26.6442C51.9404 26.9867 51.9667 27.4004 51.9195 27.8184C51.7837 28.4901 51.0664 29.0029 50.5685 29.4242C50.4488 29.5293 50.3327 29.6366 50.217 29.746C50.1778 29.783 50.1386 29.82 50.0982 29.8581C50.0198 29.9324 49.9416 30.0068 49.8637 30.0814C49.4177 30.503 49.0151 30.7696 48.3794 30.7525C47.8322 30.6862 47.3876 30.2382 47.0546 29.8269C46.9293 29.6618 46.9293 29.6618 46.7794 29.5516C46.6412 29.4398 46.5401 29.3331 46.426 29.1983C46.2448 28.9854 46.0487 28.807 45.8358 28.6267C45.7039 28.5087 45.6029 28.373 45.4925 28.235C45.4141 28.1644 45.3346 28.0951 45.2544 28.0267C45.0712 27.8704 44.9288 27.709 44.7783 27.5209C44.7 27.4503 44.6205 27.381 44.5403 27.3126C44.3571 27.1563 44.2147 26.9949 44.0642 26.8067C43.9858 26.7362 43.9064 26.6669 43.8262 26.5985C43.643 26.4422 43.5006 26.2808 43.3501 26.0926C43.2742 26.0246 43.1972 25.9578 43.1195 25.8918C42.9635 25.7588 42.8255 25.6262 42.6955 25.4678C42.5318 25.2689 42.3482 25.106 42.1525 24.9392C42.0084 24.8149 41.8761 24.6815 41.7433 24.5454C41.7103 24.5129 41.6772 24.4805 41.6431 24.447C41.4798 24.2865 41.3263 24.1282 41.1817 23.9503C41.023 23.7645 40.8524 23.6155 40.6668 23.4577C40.5125 23.3185 40.3881 23.1579 40.2556 22.9981C40.1524 22.9042 40.0462 22.8149 39.939 22.7257C39.7979 22.6062 39.6706 22.4757 39.5415 22.3435C39.4797 22.2878 39.4797 22.2878 39.4166 22.231C39.3707 22.1883 39.3247 22.1457 39.2774 22.1017C39.2345 22.063 39.1916 22.0243 39.1474 21.9843C38.6396 21.3515 38.597 20.7759 38.6036 20.0006C38.6032 19.8918 38.6026 19.7831 38.6019 19.6743C38.6006 19.3808 38.6014 19.0873 38.6028 18.7938C38.6039 18.4857 38.6033 18.1776 38.6029 17.8695C38.6025 17.3523 38.6036 16.8352 38.6055 16.3181C38.6078 15.7212 38.6077 15.1244 38.6063 14.5275C38.6051 13.9518 38.6055 13.3762 38.6067 12.8005C38.6071 12.5561 38.607 12.3118 38.6064 12.0675C38.6058 11.7795 38.6067 11.4917 38.6086 11.2038C38.6091 11.0984 38.6091 10.9931 38.6085 10.8878C38.6042 9.98414 38.7872 9.50232 39.4194 8.85777C39.5378 8.73927 39.6567 8.62139 39.7756 8.50352C39.8611 8.41769 39.9466 8.3318 40.032 8.24586C40.2631 8.01367 40.4951 7.78242 40.7273 7.55137C40.9707 7.30899 41.2133 7.06586 41.456 6.82284C41.8635 6.41503 42.2717 6.00783 42.6802 5.60099C43.152 5.13103 43.6229 4.66013 44.0933 4.1887C44.5466 3.73454 45.0005 3.28105 45.4547 2.82787C45.6477 2.63528 45.8404 2.44245 46.033 2.24944C46.2598 2.02215 46.4872 1.79546 46.7151 1.56921C46.7985 1.48622 46.8817 1.40303 46.9647 1.31962C47.0782 1.20555 47.1925 1.09225 47.307 0.979103C47.3556 0.929696 47.3556 0.929696 47.4053 0.87929C47.718 0.573208 48.0712 0.350241 48.52 0.350862Z" fill="var(--fill-0, #FFFFF7)"/>
<path id="Vector_4" d="M3.31002 0.187477C3.40702 0.18414 3.40702 0.18414 3.50599 0.180736C4.01164 0.241908 4.33338 0.551994 4.67786 0.903441C4.7469 0.972428 4.7469 0.972428 4.81734 1.04281C4.96845 1.19409 5.11871 1.34619 5.26897 1.49832C5.37426 1.60406 5.47961 1.70974 5.585 1.81538C5.83356 2.06475 6.08158 2.31465 6.32935 2.56481C6.63805 2.87643 6.94758 3.18724 7.25709 3.49806C7.71133 3.9544 8.16515 4.41114 8.61845 4.8684C8.82845 5.08022 9.0388 5.29168 9.24985 5.50246C9.33604 5.58891 9.42221 5.67539 9.50835 5.7619C9.75096 6.00545 9.99369 6.24888 10.2365 6.49221C10.3829 6.63886 10.5291 6.78557 10.6753 6.93239C10.8447 7.10254 11.0143 7.27245 11.1839 7.44234C11.2361 7.49485 11.2883 7.54736 11.3421 7.60146C11.3912 7.65052 11.4402 7.69958 11.4908 7.75013C11.555 7.8146 11.555 7.8146 11.6206 7.88036C11.7567 8.00888 11.9003 8.1236 12.0468 8.23991C12.117 8.3162 12.1854 8.39428 12.2514 8.47423C12.3782 8.62326 12.4927 8.73994 12.6456 8.86477C12.9176 9.09625 13.1634 9.39269 13.2965 9.72766C13.308 9.88138 13.3131 10.0287 13.3124 10.1823C13.3127 10.2284 13.313 10.2744 13.3133 10.3218C13.314 10.4763 13.3139 10.6307 13.3138 10.7851C13.3142 10.8957 13.3146 11.0064 13.315 11.117C13.3161 11.4178 13.3164 11.7185 13.3164 12.0193C13.3165 12.2704 13.317 12.5215 13.3174 12.7726C13.3184 13.3652 13.3187 13.9577 13.3186 14.5503C13.3185 15.1613 13.3198 15.7724 13.3216 16.3834C13.3232 16.9081 13.3238 17.4328 13.3238 17.9575C13.3237 18.2708 13.3241 18.5842 13.3253 18.8975C13.3265 19.1923 13.3265 19.4871 13.3256 19.782C13.3255 19.89 13.3258 19.9981 13.3265 20.1061C13.3274 20.254 13.3269 20.4018 13.326 20.5496C13.3266 20.5921 13.3272 20.6345 13.3278 20.6783C13.3206 21.2048 13.0591 21.546 12.6991 21.9006C12.6633 21.9368 12.6275 21.973 12.5906 22.0103C12.4715 22.1306 12.3515 22.25 12.2315 22.3694C12.1455 22.4558 12.0595 22.5423 11.9737 22.6288C11.7408 22.8629 11.5073 23.0963 11.2735 23.3295C11.0782 23.5245 10.8833 23.7199 10.6884 23.9152C10.2285 24.3762 9.76792 24.8365 9.307 25.2964C8.83192 25.7705 8.35782 26.2455 7.88421 26.7211C7.47709 27.1298 7.0694 27.5379 6.66123 27.9456C6.41766 28.1888 6.1743 28.4323 5.93148 28.6764C5.70311 28.9058 5.47402 29.1346 5.24437 29.3627C5.16037 29.4465 5.07662 29.5304 4.99314 29.6146C4.87884 29.7299 4.76365 29.8442 4.64819 29.9583C4.61565 29.9916 4.5831 30.0248 4.54957 30.0591C4.1982 30.4022 3.79036 30.5899 3.29514 30.5933C3.22817 30.5953 3.1612 30.5973 3.09221 30.5994C2.60962 30.5 2.25231 30.0654 1.90782 29.7341C1.81883 29.6495 1.7298 29.5649 1.64072 29.4803C1.59833 29.44 1.55594 29.3997 1.51226 29.3581C1.2358 29.0969 0.952669 28.843 0.664155 28.5951C0.600408 28.5403 0.600408 28.5403 0.535372 28.4844C0.498627 28.4534 0.461882 28.4223 0.424024 28.3903C0.126088 28.1075 0.0368385 27.8137 0.0109412 27.4058C0.035682 26.792 0.254147 26.5219 0.680428 26.0929C0.745096 26.0259 0.745096 26.0259 0.81107 25.9576C0.973538 25.7914 1.13401 25.6346 1.31644 25.4903C1.45382 25.379 1.55523 25.2569 1.66536 25.1193C1.79863 24.9685 1.9511 24.8421 2.10495 24.7128C2.25173 24.5841 2.38784 24.4461 2.52523 24.3076C2.56484 24.2677 2.60444 24.2278 2.64525 24.1867C2.73948 24.0918 2.83369 23.9968 2.9279 23.9019C3.11772 23.7107 3.30776 23.5197 3.49788 23.3288C3.6421 23.1839 3.7862 23.039 3.93007 22.8938C4.09647 22.7258 4.26334 22.5584 4.43025 22.391C4.48207 22.3385 4.53389 22.2861 4.58729 22.2321C4.63517 22.1842 4.68305 22.1363 4.73238 22.0869C4.77456 22.0445 4.81674 22.002 4.8602 21.9583C4.96514 21.8677 4.96514 21.8677 5.08416 21.8677C5.09759 21.8341 5.11101 21.8005 5.12484 21.7659C5.22538 21.591 5.35185 21.4857 5.50445 21.3544C5.71 21.1874 5.71 21.1874 5.85779 20.975C5.89707 20.975 5.93634 20.975 5.97681 20.975C6.01609 20.8965 6.05536 20.8179 6.09583 20.737C6.13511 20.737 6.17438 20.737 6.21485 20.737C6.23449 20.6781 6.25413 20.6192 6.27436 20.5585C6.31364 20.5585 6.35291 20.5585 6.39338 20.5585C6.39338 20.5192 6.39338 20.4799 6.39338 20.4394C6.4766 20.3576 6.4766 20.3576 6.59422 20.2609C6.79312 20.0903 6.98833 19.9172 7.17817 19.7365C7.22565 19.6919 7.27314 19.6473 7.32206 19.6014C7.699 19.1421 7.80621 18.719 7.79966 18.1335C7.80009 18.0663 7.80052 17.9991 7.80095 17.9298C7.80195 17.7092 7.80081 17.4888 7.79953 17.2682C7.79958 17.1141 7.79973 16.96 7.79997 16.8059C7.80014 16.4836 7.7993 16.1614 7.79763 15.8392C7.79572 15.4676 7.79572 15.0962 7.79675 14.7246C7.7977 14.3657 7.79729 14.0068 7.79628 13.6479C7.79597 13.4958 7.796 13.3437 7.79637 13.1916C7.79669 12.979 7.79548 12.7664 7.79385 12.5538C7.79424 12.4913 7.79463 12.4289 7.79503 12.3645C7.78919 11.9141 7.69308 11.6026 7.4089 11.2517C7.35003 11.1947 7.35003 11.1947 7.28998 11.1366C7.24645 11.0938 7.20291 11.0511 7.15806 11.007C7.11314 10.9641 7.06823 10.9212 7.02195 10.8769C6.97727 10.8333 6.93258 10.7897 6.88654 10.7448C6.80011 10.6605 6.71343 10.5764 6.62648 10.4926C6.5351 10.4042 6.44506 10.3144 6.35549 10.2242C6.21847 10.0883 6.07769 9.95831 5.93473 9.82878C5.64056 9.56216 5.36343 9.29447 5.10834 8.98937C5.0201 8.88388 5.0201 8.88388 4.87588 8.7755C4.74015 8.66692 4.64174 8.56155 4.52997 8.4296C4.34877 8.21675 4.1527 8.03835 3.93976 7.85798C3.80784 7.74004 3.70685 7.60433 3.59641 7.46628C3.52795 7.40497 3.45838 7.34488 3.38817 7.28557C3.08628 7.02408 2.80602 6.74285 2.52454 6.45973C2.44141 6.37647 2.44141 6.37647 2.3566 6.29154C2.21052 6.14524 2.06463 5.99875 1.91877 5.85223C1.7706 5.70345 1.62226 5.55484 1.47393 5.40622C1.21039 5.1421 0.946971 4.87787 0.683752 4.61344C0.583477 4.51291 0.482807 4.41282 0.381948 4.31288C0.0524331 3.97903 -0.00060001 3.64175 1.55032e-05 3.1832C0.0621841 2.74914 0.266424 2.48966 0.572566 2.19966C0.607518 2.16567 0.64247 2.13168 0.678481 2.09666C0.885847 1.89636 1.09752 1.70228 1.3176 1.51599C1.43647 1.4117 1.55181 1.30513 1.66676 1.19659C1.7057 1.15984 1.74464 1.12309 1.78476 1.08523C1.86234 1.01179 1.93975 0.938157 2.01693 0.864301C2.41376 0.489219 2.74213 0.200126 3.31002 0.187477Z" fill="var(--fill-0, #FFFFF7)"/>
</g>
</svg>
