<svg width="229" height="31" viewBox="0 0 229 31" fill="none" xmlns="http://www.w3.org/2000/svg">
<path d="M14.926 0.00511413C14.9694 0.00342647 15.0129 0.00173881 15.0576 0C15.4245 0.0700533 15.698 0.388169 15.951 0.643475C15.989 0.681261 16.0269 0.719047 16.066 0.757978C16.1925 0.884152 16.3186 1.01075 16.4446 1.13734C16.5354 1.22809 16.6263 1.3188 16.7171 1.4095C16.9634 1.65549 17.2093 1.90185 17.4552 2.14829C17.7123 2.406 17.9698 2.66339 18.2273 2.92083C18.6594 3.35296 19.0912 3.78532 19.5229 4.21782C20.0225 4.71839 20.5225 5.21865 21.0226 5.71872C21.5034 6.19945 21.984 6.68035 22.4645 7.16135C22.6692 7.36626 22.8739 7.57112 23.0787 7.77595C23.3195 8.01681 23.5602 8.25782 23.8007 8.49895C23.8892 8.58762 23.9777 8.67624 24.0663 8.76481C24.1868 8.88528 24.3072 9.00592 24.4274 9.12662C24.4629 9.162 24.4984 9.19738 24.5349 9.23383C24.819 9.51963 24.8508 9.66556 24.8514 10.0579C24.8517 10.1048 24.852 10.1517 24.8523 10.2001C24.8533 10.3581 24.8538 10.5162 24.8543 10.6743C24.8548 10.7873 24.8554 10.9002 24.856 11.0132C24.8579 11.3851 24.8591 11.757 24.8602 12.1289C24.8604 12.1921 24.8606 12.2553 24.8608 12.3205C24.8627 12.9168 24.8642 13.5131 24.8652 14.1095C24.8666 14.8725 24.869 15.6355 24.8732 16.3986C24.876 16.9349 24.8774 17.4712 24.8779 18.0075C24.8782 18.3279 24.8791 18.6483 24.8814 18.9687C24.8836 19.2703 24.8841 19.5718 24.8833 19.8734C24.8833 19.9839 24.8839 20.0945 24.8852 20.205C24.8869 20.3563 24.8863 20.5074 24.8852 20.6587C24.8867 20.7239 24.8867 20.7239 24.8882 20.7904C24.8785 21.3263 24.4587 21.6736 24.1001 22.0294C24.063 22.0666 24.0259 22.1039 23.9877 22.1423C23.8647 22.2658 23.7412 22.3889 23.6177 22.512C23.5289 22.601 23.4401 22.69 23.3513 22.779C23.1111 23.0198 22.8706 23.2601 22.6299 23.5004C22.3779 23.7521 22.1262 24.0041 21.8744 24.2561C21.4519 24.6788 21.0292 25.1012 20.6063 25.5236C20.1172 26.012 19.6285 26.5009 19.1401 26.99C18.7205 27.4101 18.3007 27.83 17.8807 28.2497C17.6299 28.5003 17.3792 28.7509 17.1287 29.0018C16.8935 29.2374 16.6579 29.4727 16.4221 29.7078C16.3356 29.7942 16.2491 29.8807 16.1628 29.9674C16.0451 30.0854 15.9271 30.203 15.8089 30.3205C15.7575 30.3723 15.7575 30.3723 15.7051 30.4251C15.4693 30.6586 15.288 30.8091 14.9521 30.8238C14.4015 30.8076 14.0369 30.3584 13.6784 29.9877C13.553 29.8602 13.4252 29.7423 13.2895 29.6262C13.1258 29.4862 12.972 29.3408 12.8209 29.1873C12.6753 29.0397 12.528 28.8984 12.3708 28.7633C12.1267 28.5527 11.8895 28.3351 11.653 28.1161C11.5964 28.0642 11.5964 28.0642 11.5387 28.0112C10.7934 27.3182 10.7934 27.3182 10.7715 26.8887C10.7767 26.4315 11.0526 26.1917 11.3591 25.8845C11.3944 25.8503 11.4297 25.8161 11.4661 25.7808C11.5696 25.6777 11.6655 25.5711 11.7608 25.4605C12.0352 25.1426 12.322 24.8361 12.6075 24.5283C12.7594 24.3644 12.911 24.2002 13.0626 24.036C13.0922 24.004 13.1217 23.972 13.1521 23.939C13.3508 23.7237 13.5491 23.5081 13.747 23.2921C13.7739 23.2627 13.8009 23.2333 13.8286 23.203C13.9611 23.0584 14.0934 22.9137 14.2256 22.7688C14.5764 22.3848 14.931 22.0045 15.2871 21.6255C15.6186 21.2724 15.946 20.916 16.2724 20.5584C16.3815 20.4393 16.4906 20.3203 16.5997 20.2013C16.6541 20.1419 16.7085 20.0826 16.7629 20.0232C16.8735 19.9026 16.9842 19.782 17.0949 19.6615C17.7199 18.9857 17.7199 18.9857 18.3218 18.2895C18.3721 18.2331 18.4225 18.1766 18.4743 18.1184C18.5136 18.1184 18.5529 18.1184 18.5933 18.1184C18.6136 18.0706 18.6136 18.0706 18.6342 18.0217C18.8054 17.7119 19.0593 17.4739 19.3074 17.2258C19.3565 17.1669 19.4056 17.108 19.4562 17.0473C19.5976 16.8776 19.7446 16.7254 19.9025 16.5712C20.307 16.1752 20.6811 15.7647 21.0332 15.3215C21.0062 15.2933 20.9791 15.265 20.9513 15.236C20.8295 15.1085 20.7082 14.9807 20.5869 14.8528C20.5443 14.8084 20.5018 14.764 20.4579 14.7182C20.3975 14.6544 20.3975 14.6544 20.3358 14.5892C20.2984 14.55 20.261 14.5107 20.2225 14.4702C20.1406 14.3693 20.1406 14.3693 20.1406 14.2503C20.1065 14.2363 20.0725 14.2224 20.0374 14.208C19.8713 14.1135 19.7742 14.0008 19.6496 13.856C19.4466 13.6244 19.2385 13.4036 19.0169 13.1898C18.9058 13.0755 18.8014 12.9586 18.697 12.8383C18.4756 12.5835 18.2455 12.3379 18.0131 12.0931C17.6845 11.7454 17.3589 11.3955 17.0365 11.0421C16.7956 10.7789 16.5505 10.5196 16.306 10.2597C16.0747 10.0134 15.8453 9.76541 15.6178 9.51554C15.417 9.29546 15.2123 9.08207 14.9999 8.87325C14.7626 8.63185 14.5456 8.37122 14.3309 8.10962C14.1669 7.91543 13.9886 7.74002 13.8078 7.56152C13.7193 7.47403 13.6308 7.38642 13.5424 7.2988C13.5132 7.27007 13.484 7.24134 13.4538 7.21174C13.2492 7.00841 13.0585 6.79595 12.8697 6.57787C12.6865 6.36929 12.4949 6.16865 12.3039 5.96726C12.2202 5.87872 12.1366 5.79015 12.053 5.70156C12.012 5.65808 11.971 5.61459 11.9287 5.56979C11.7542 5.38439 11.5805 5.1982 11.4075 5.01139C11.3791 4.98092 11.3508 4.95045 11.3216 4.91906C10.7897 4.3434 10.7897 4.3434 10.7789 3.96996C10.7767 3.91995 10.7745 3.86993 10.7722 3.8184C10.8363 3.41142 11.1809 3.14757 11.4707 2.88391C11.5564 2.80479 11.6421 2.72568 11.7278 2.64656C11.7712 2.60678 11.8146 2.56699 11.8592 2.526C12.0184 2.37961 12.1763 2.23193 12.3342 2.0841C12.6776 1.76242 13.0224 1.44213 13.3688 1.12358C13.5353 0.970457 13.701 0.816607 13.8658 0.661583C13.9007 0.628913 13.9356 0.596244 13.9715 0.562584C14.0382 0.500098 14.1047 0.437403 14.171 0.374465C14.414 0.147583 14.5895 0.0110189 14.926 0.00511413Z" fill="#FFFFF7"/>
<path d="M36.8593 0.179268C36.9077 0.178117 36.9561 0.176967 37.006 0.175781C37.4012 0.251255 37.691 0.594571 37.9714 0.863632C38.0564 0.944251 38.1414 1.02484 38.2264 1.10539C38.2679 1.14482 38.3094 1.18425 38.3522 1.22488C38.5101 1.37405 38.6701 1.52067 38.8306 1.66702C39.1426 1.95177 39.4514 2.23982 39.7589 2.52946C39.9686 2.72608 40.1818 2.91672 40.4014 3.10216C40.9871 3.60437 40.9871 3.60437 41.0497 3.95141C41.0615 4.2339 41.0103 4.43079 40.8502 4.66855C40.7219 4.80553 40.5893 4.93661 40.4543 5.06698C40.2081 5.3087 39.9855 5.56965 39.7716 5.84015C39.6029 6.0482 39.4085 6.22995 39.2179 6.41781C39.1458 6.48904 39.1458 6.48904 39.0723 6.56171C39.0246 6.60873 38.9769 6.65576 38.9278 6.70421C38.7653 6.87258 38.6122 7.04673 38.4589 7.22342C38.2873 7.41876 38.109 7.60754 37.9305 7.79654C37.8516 7.88037 37.7727 7.96421 37.6939 8.04806C37.6544 8.08996 37.615 8.13187 37.5743 8.17504C37.3974 8.36326 37.2214 8.55226 37.0453 8.74126C36.7072 9.10385 36.3677 9.46497 36.0277 9.82577C35.7344 10.1373 35.442 10.4497 35.1503 10.7627C34.8984 11.0328 34.646 11.3024 34.3934 11.5717C33.8181 12.185 33.2436 12.7989 32.6741 13.4175C32.398 13.7169 32.1192 14.0137 31.8404 14.3105C31.489 14.6849 31.1405 15.0619 30.793 15.4398C30.871 15.6087 30.9571 15.7427 31.0794 15.8824C31.108 15.9155 31.1366 15.9486 31.1661 15.9826C31.2427 16.0658 31.3216 16.1469 31.4016 16.2267C31.611 16.4365 31.8138 16.652 32.0167 16.8681C32.0793 16.9347 32.0793 16.9347 32.1431 17.0026C32.4029 17.2795 32.6624 17.5567 32.9205 17.8351C32.9489 17.8656 32.9772 17.896 33.0064 17.9274C33.1696 18.104 33.3214 18.2867 33.471 18.4748C33.5176 18.5215 33.5643 18.5681 33.6123 18.6162C33.7606 18.7645 33.895 18.918 34.0289 19.0792C34.1541 19.2214 34.2891 19.3527 34.4231 19.4865C34.5303 19.6013 34.637 19.7165 34.743 19.8324C35.0226 20.1367 35.3043 20.4389 35.5873 20.7399C35.9022 21.0751 36.2147 21.4122 36.5248 21.7518C36.6988 21.9421 36.8739 22.1314 37.049 22.3207C37.2564 22.5449 37.4625 22.7702 37.6664 22.9976C37.878 23.2335 38.0915 23.4675 38.3062 23.7006C38.3356 23.7327 38.3651 23.7648 38.3955 23.7978C38.5284 23.9418 38.6623 24.0825 38.8018 24.2201C38.9994 24.4206 39.1703 24.6393 39.3457 24.8591C39.4826 25.0223 39.6273 25.169 39.779 25.3185C39.9389 25.4835 40.0971 25.6501 40.2551 25.8169C40.2967 25.8603 40.3383 25.9037 40.3811 25.9485C41.0434 26.6483 41.0434 26.6483 41.0585 26.9885C41.0078 27.3877 40.832 27.6221 40.5489 27.8997C40.4967 27.9517 40.4445 28.0038 40.3906 28.0573C40.2551 28.175 40.2551 28.175 40.1361 28.175C40.1361 28.2142 40.1361 28.2535 40.1361 28.294C40.0403 28.3884 40.0403 28.3884 39.9129 28.4948C39.7749 28.6116 39.645 28.726 39.5187 28.8556C39.422 28.9486 39.422 28.9486 39.3029 28.9486C39.3029 28.9879 39.3029 29.0271 39.3029 29.0676C39.2302 29.1411 39.2302 29.1411 39.1207 29.2313C38.822 29.4845 38.5382 29.7523 38.2537 30.0212C38.0542 30.2088 37.852 30.3858 37.6367 30.5554C37.5851 30.6069 37.5336 30.6585 37.4805 30.7116C37.2914 30.9007 37.1696 30.9897 36.9039 30.9942C36.86 30.9959 36.816 30.9976 36.7708 30.9994C36.4025 30.9301 36.1291 30.612 35.8752 30.3559C35.8373 30.3181 35.7994 30.2803 35.7603 30.2414C35.6338 30.1152 35.5077 29.9886 35.3816 29.862C35.2908 29.7713 35.2 29.6806 35.1091 29.5899C34.8628 29.3439 34.6169 29.0975 34.3711 28.8511C34.1139 28.5934 33.8564 28.336 33.5989 28.0785C33.1669 27.6464 32.735 27.214 32.3033 26.7815C31.8037 26.281 31.3038 25.7807 30.8036 25.2806C30.3229 24.7999 29.8423 24.319 29.3618 23.838C29.1571 23.6331 28.9523 23.4282 28.7475 23.2234C28.5067 22.9826 28.2661 22.7415 28.0256 22.5004C27.9371 22.4117 27.8485 22.3231 27.7599 22.2346C27.6394 22.1141 27.5191 21.9934 27.3988 21.8727C27.3456 21.8197 27.3456 21.8197 27.2913 21.7655C27.0081 21.4806 26.9756 21.3367 26.9764 20.9456C26.9763 20.8991 26.9762 20.8526 26.976 20.8047C26.9756 20.6482 26.9757 20.4916 26.9757 20.3351C26.9756 20.2232 26.9754 20.1112 26.9751 19.9993C26.9746 19.6946 26.9745 19.39 26.9744 19.0853C26.9744 18.8311 26.9742 18.5768 26.974 18.3226C26.9735 17.7228 26.9733 17.1229 26.9734 16.5231C26.9734 15.9042 26.9728 15.2853 26.9718 14.6664C26.9711 14.1354 26.9707 13.6043 26.9708 13.0732C26.9708 12.7559 26.9706 12.4387 26.97 12.1214C26.9694 11.8228 26.9694 11.5242 26.9698 11.2256C26.9699 11.1161 26.9698 11.0066 26.9694 10.8971C26.9689 10.7474 26.9692 10.5977 26.9697 10.448C26.9694 10.4048 26.9691 10.3617 26.9688 10.3172C26.9717 9.87397 27.0483 9.57094 27.3573 9.25556C27.3924 9.22123 27.4275 9.18691 27.4636 9.15155C27.501 9.11389 27.5383 9.07624 27.5767 9.03744C27.7016 8.91179 27.8275 8.78722 27.9535 8.66263C28.0434 8.57263 28.1332 8.48257 28.2229 8.39244C28.4667 8.14809 28.7114 7.90466 28.9563 7.66142C29.2124 7.40673 29.4677 7.15125 29.7231 6.89587C30.1521 6.46716 30.5816 6.03901 31.0116 5.61123C31.5087 5.11659 32.0051 4.62123 32.5011 4.12544C33.029 3.59768 33.5575 3.07039 34.0861 2.54326C34.2384 2.3913 34.3906 2.23926 34.5429 2.08721C34.7821 1.84836 35.0216 1.60982 35.2613 1.37153C35.3493 1.28399 35.4372 1.19636 35.525 1.10862C35.6447 0.988941 35.7648 0.869636 35.885 0.75042C35.9371 0.698138 35.9371 0.698138 35.9902 0.6448C36.2497 0.388692 36.4772 0.179872 36.8593 0.179268Z" fill="#FFFFF7"/>
<path d="M48.5203 0.351608C48.6029 0.349652 48.6029 0.349652 48.6872 0.347656C49.2483 0.453925 49.6392 0.79781 50.0285 1.19381C50.0776 1.24274 50.1267 1.29166 50.1772 1.34207C50.28 1.4449 50.3824 1.54809 50.4844 1.65163C50.6406 1.80989 50.7982 1.96665 50.956 2.12331C51.0561 2.22376 51.156 2.3243 51.2559 2.42492C51.3029 2.47161 51.3499 2.5183 51.3983 2.5664C51.7423 2.91793 51.8766 3.18085 51.8826 3.68044C51.8843 3.7435 51.886 3.80656 51.8877 3.87153C51.8072 4.46814 51.3828 4.81923 50.9714 5.21654C50.9119 5.27487 50.8524 5.33326 50.793 5.3917C50.6834 5.49935 50.5735 5.60659 50.4632 5.71359C50.3594 5.8148 50.2564 5.9168 50.1539 6.01942C50.0128 6.1602 49.8666 6.2926 49.718 6.42534C49.1886 6.90405 48.6913 7.41717 48.1888 7.92375C48.121 7.99212 48.121 7.99212 48.0517 8.06186C48.0025 8.11167 47.9534 8.16147 47.9027 8.21279C47.7653 8.34841 47.6243 8.47693 47.4794 8.60442C47.1388 8.90915 46.8177 9.23169 46.497 9.55705C46.1701 9.88868 45.8437 10.2159 45.4899 10.5189C45.2677 10.7137 45.0589 10.9222 44.8493 11.1303C44.8047 11.1737 44.7601 11.2171 44.7141 11.2618C44.6712 11.3044 44.6283 11.347 44.5841 11.3909C44.5456 11.4288 44.5072 11.4667 44.4676 11.5057C44.1626 11.8721 44.1573 12.2028 44.1585 12.6598C44.158 12.7268 44.1575 12.7938 44.157 12.8628C44.1556 13.0841 44.1556 13.3053 44.1556 13.5265C44.1552 13.6807 44.1548 13.8349 44.1543 13.9891C44.1535 14.3122 44.1534 14.6354 44.1537 14.9585C44.1541 15.3309 44.1528 15.7031 44.1506 16.0755C44.1485 16.4349 44.1481 16.7943 44.1484 17.1538C44.1483 17.3061 44.1477 17.4584 44.1466 17.6107C44.1453 17.8242 44.1459 18.0376 44.1469 18.2511C44.1461 18.3135 44.1453 18.3759 44.1445 18.4402C44.1503 18.9501 44.2892 19.3314 44.6299 19.7146C44.7035 19.7791 44.7035 19.7791 44.7786 19.8448C44.8776 19.944 44.9765 20.0433 45.0754 20.1425C45.3595 20.4276 45.6438 20.7126 45.9282 20.9975C46.0998 21.1694 46.2713 21.3413 46.4427 21.5134C46.6092 21.6805 46.7759 21.8475 46.9426 22.0145C47.0059 22.0778 47.0691 22.1412 47.1322 22.2047C47.2206 22.2936 47.3092 22.3822 47.3979 22.4708C47.4481 22.5212 47.4984 22.5716 47.5501 22.6235C47.6932 22.7634 47.6932 22.7634 47.8533 22.8875C47.9926 22.9992 48.0942 23.122 48.2056 23.2605C48.2952 23.3621 48.39 23.4458 48.4936 23.5329C48.8343 23.8277 49.1522 24.1455 49.472 24.4624C49.5049 24.495 49.5378 24.5276 49.5717 24.5612C49.7453 24.7332 49.9187 24.9054 50.0919 25.0777C50.2346 25.2196 50.3778 25.3611 50.5213 25.5022C50.6957 25.6738 50.8695 25.846 51.0427 26.0188C51.1084 26.0842 51.1744 26.1493 51.2407 26.2141C51.3333 26.3048 51.4248 26.3964 51.5162 26.4882C51.5685 26.5399 51.6207 26.5917 51.6745 26.645C51.9407 26.9874 51.967 27.4012 51.9198 27.8192C51.7841 28.4908 51.0667 29.0037 50.5688 29.425C50.4491 29.53 50.333 29.6374 50.2173 29.7467C50.1781 29.7837 50.1389 29.8208 50.0985 29.8589C50.0201 29.9331 49.9419 30.0075 49.864 30.0821C49.418 30.5038 49.0154 30.7704 48.3797 30.7533C47.8325 30.6869 47.3879 30.2389 47.0549 29.8276C46.9296 29.6626 46.9296 29.6626 46.7797 29.5524C46.6415 29.4406 46.5404 29.3338 46.4263 29.199C46.2451 28.9862 46.049 28.8078 45.8361 28.6274C45.7042 28.5095 45.6032 28.3738 45.4928 28.2357C45.4144 28.1652 45.3349 28.0959 45.2547 28.0274C45.0715 27.8712 44.9291 27.7097 44.7786 27.5216C44.7003 27.4511 44.6208 27.3817 44.5406 27.3133C44.3574 27.1571 44.215 26.9956 44.0645 26.8075C43.9861 26.737 43.9067 26.6676 43.8265 26.5992C43.6433 26.4429 43.5009 26.2815 43.3504 26.0934C43.2745 26.0253 43.1975 25.9585 43.1198 25.8925C42.9638 25.7596 42.8258 25.6269 42.6958 25.4685C42.5321 25.2696 42.3485 25.1067 42.1528 24.9399C42.0087 24.8157 41.8764 24.6823 41.7436 24.5461C41.7106 24.5137 41.6775 24.4812 41.6434 24.4478C41.4801 24.2873 41.3266 24.129 41.182 23.951C41.0233 23.7652 40.8527 23.6163 40.6671 23.4584C40.5128 23.3192 40.3884 23.1586 40.2559 22.9989C40.1527 22.905 40.0465 22.8157 39.9393 22.7264C39.7982 22.607 39.6709 22.4765 39.5418 22.3442C39.48 22.2885 39.48 22.2885 39.4169 22.2317C39.371 22.1891 39.325 22.1464 39.2777 22.1025C39.2348 22.0637 39.1919 22.025 39.1477 21.9851C38.6399 21.3522 38.5973 20.7766 38.6039 20.0014C38.6035 19.8926 38.6029 19.7838 38.6023 19.675C38.6009 19.3815 38.6017 19.0881 38.6031 18.7946C38.6042 18.4865 38.6036 18.1783 38.6032 17.8702C38.6028 17.3531 38.6039 16.8359 38.6058 16.3188C38.6081 15.7219 38.608 15.1251 38.6066 14.5283C38.6054 13.9526 38.6058 13.3769 38.607 12.8012C38.6075 12.5569 38.6073 12.3125 38.6067 12.0682C38.6061 11.7803 38.607 11.4924 38.6089 11.2045C38.6094 11.0992 38.6094 10.9939 38.6088 10.8886C38.6045 9.98489 38.7875 9.50306 39.4197 8.85852C39.5381 8.74001 39.657 8.62213 39.7759 8.50426C39.8614 8.41844 39.9469 8.33255 40.0323 8.2466C40.2634 8.01441 40.4954 7.78317 40.7276 7.55211C40.971 7.30973 41.2136 7.0666 41.4563 6.82359C41.8638 6.41578 42.272 6.00857 42.6805 5.60173C43.1524 5.13178 43.6233 4.66087 44.0937 4.18945C44.5469 3.73529 45.0008 3.2818 45.455 2.82861C45.648 2.63602 45.8407 2.4432 46.0333 2.25019C46.2601 2.0229 46.4875 1.7962 46.7154 1.56996C46.7988 1.48697 46.882 1.40377 46.965 1.32037C47.0785 1.2063 47.1928 1.093 47.3073 0.979849C47.3559 0.930441 47.3559 0.930441 47.4056 0.880035C47.7183 0.573954 48.0715 0.350986 48.5203 0.351608Z" fill="#FFFFF7"/>
<path d="M3.31001 0.188382C3.40701 0.185045 3.40701 0.185045 3.50598 0.181641C4.01163 0.242813 4.33337 0.552899 4.67785 0.904346C4.74689 0.973333 4.74689 0.973333 4.81733 1.04371C4.96844 1.19499 5.1187 1.3471 5.26896 1.49923C5.37425 1.60496 5.4796 1.71065 5.58499 1.81628C5.83355 2.06566 6.08157 2.31555 6.32934 2.56571C6.63804 2.87734 6.94757 3.18814 7.25708 3.49897C7.71132 3.9553 8.16514 4.41204 8.61844 4.86931C8.82844 5.08113 9.03879 5.29258 9.24984 5.50336C9.33603 5.58982 9.4222 5.6763 9.50834 5.7628C9.75095 6.00636 9.99368 6.24979 10.2365 6.49312C10.3829 6.63977 10.5291 6.78647 10.6753 6.9333C10.8447 7.10345 11.0143 7.27335 11.1839 7.44324C11.2361 7.49575 11.2883 7.54826 11.3421 7.60237C11.3912 7.65143 11.4402 7.70049 11.4908 7.75104C11.555 7.8155 11.555 7.8155 11.6206 7.88127C11.7567 8.00978 11.9003 8.12451 12.0468 8.24082C12.117 8.3171 12.1854 8.39519 12.2514 8.47514C12.3782 8.62416 12.4927 8.74085 12.6456 8.86567C12.9176 9.09716 13.1634 9.3936 13.2965 9.72857C13.308 9.88229 13.3131 10.0296 13.3124 10.1832C13.3127 10.2293 13.313 10.2753 13.3132 10.3228C13.314 10.4772 13.3139 10.6316 13.3138 10.786C13.3142 10.8966 13.3146 11.0073 13.315 11.1179C13.3161 11.4187 13.3163 11.7195 13.3164 12.0202C13.3165 12.2713 13.317 12.5224 13.3174 12.7735C13.3184 13.3661 13.3187 13.9586 13.3186 14.5512C13.3185 15.1622 13.3198 15.7733 13.3216 16.3843C13.3232 16.909 13.3238 17.4337 13.3238 17.9584C13.3237 18.2717 13.3241 18.5851 13.3253 18.8984C13.3265 19.1932 13.3265 19.488 13.3256 19.7829C13.3255 19.8909 13.3258 19.999 13.3265 20.107C13.3274 20.2549 13.3269 20.4027 13.3259 20.5505C13.3266 20.593 13.3272 20.6354 13.3278 20.6792C13.3206 21.2057 13.059 21.5469 12.6991 21.9015C12.6633 21.9377 12.6275 21.974 12.5906 22.0113C12.4715 22.1315 12.3515 22.2509 12.2315 22.3703C12.1455 22.4567 12.0595 22.5432 11.9736 22.6297C11.7408 22.8638 11.5073 23.0972 11.2735 23.3304C11.0782 23.5254 10.8833 23.7208 10.6884 23.9161C10.2284 24.3771 9.76791 24.8374 9.30699 25.2973C8.83191 25.7714 8.35781 26.2464 7.8842 26.722C7.47708 27.1307 7.06939 27.5388 6.66122 27.9465C6.41765 28.1897 6.17429 28.4332 5.93147 28.6773C5.7031 28.9067 5.47401 29.1355 5.24436 29.3637C5.16036 29.4474 5.07661 29.5313 4.99313 29.6155C4.87883 29.7308 4.76364 29.8451 4.64818 29.9592C4.61564 29.9925 4.58309 30.0257 4.54956 30.06C4.19819 30.4031 3.79035 30.5908 3.29513 30.5942C3.22816 30.5962 3.16119 30.5982 3.0922 30.6003C2.6096 30.5009 2.2523 30.0663 1.90781 29.7351C1.81882 29.6504 1.72979 29.5658 1.64071 29.4812C1.59832 29.4409 1.55593 29.4006 1.51225 29.359C1.23579 29.0978 0.952659 28.8439 0.664145 28.596C0.600397 28.5412 0.600397 28.5412 0.535362 28.4853C0.498617 28.4543 0.461872 28.4232 0.424013 28.3912C0.126077 28.1084 0.0368282 27.8146 0.0109309 27.4067C0.0356717 26.7929 0.254137 26.5228 0.680417 26.0938C0.745086 26.0268 0.745086 26.0268 0.81106 25.9585C0.973528 25.7923 1.134 25.6355 1.31643 25.4913C1.45381 25.3799 1.55522 25.2578 1.66535 25.1202C1.79862 24.9694 1.95109 24.843 2.10494 24.7137C2.25172 24.585 2.38783 24.447 2.52522 24.3085C2.56483 24.2686 2.60443 24.2287 2.64524 24.1876C2.73947 24.0927 2.83368 23.9977 2.92789 23.9028C3.11771 23.7116 3.30775 23.5206 3.49787 23.3297C3.64209 23.1848 3.78619 23.0399 3.93006 22.8947C4.09646 22.7267 4.26333 22.5593 4.43024 22.3919C4.48206 22.3394 4.53388 22.287 4.58728 22.233C4.63516 22.1851 4.68303 22.1372 4.73237 22.0878C4.77455 22.0454 4.81673 22.0029 4.86019 21.9592C4.96513 21.8686 4.96513 21.8686 5.08415 21.8686C5.09758 21.835 5.111 21.8014 5.12483 21.7668C5.22537 21.5919 5.35184 21.4866 5.50444 21.3553C5.70999 21.1883 5.70999 21.1883 5.85778 20.9759C5.89706 20.9759 5.93633 20.9759 5.9768 20.9759C6.01608 20.8974 6.05535 20.8188 6.09582 20.7379C6.1351 20.7379 6.17437 20.7379 6.21484 20.7379C6.23448 20.679 6.25412 20.6201 6.27435 20.5594C6.31363 20.5594 6.3529 20.5594 6.39337 20.5594C6.39337 20.5201 6.39337 20.4808 6.39337 20.4403C6.47659 20.3585 6.47659 20.3585 6.59421 20.2618C6.79311 20.0912 6.98832 19.9181 7.17816 19.7374C7.22564 19.6928 7.27313 19.6482 7.32205 19.6023C7.69899 19.143 7.8062 18.7199 7.79965 18.1344C7.80008 18.0672 7.80051 18 7.80094 17.9307C7.80194 17.7101 7.8008 17.4897 7.79952 17.2691C7.79957 17.115 7.79972 16.9609 7.79996 16.8068C7.80013 16.4845 7.79929 16.1623 7.79762 15.8401C7.79571 15.4686 7.79571 15.0971 7.79674 14.7255C7.79769 14.3666 7.79728 14.0077 7.79627 13.6488C7.79596 13.4967 7.79599 13.3446 7.79636 13.1925C7.79668 12.9799 7.79547 12.7673 7.79384 12.5547C7.79423 12.4922 7.79462 12.4298 7.79502 12.3654C7.78918 11.915 7.69307 11.6035 7.40889 11.2526C7.35002 11.1957 7.35002 11.1957 7.28997 11.1375C7.24644 11.0947 7.2029 11.052 7.15805 11.0079C7.11313 10.965 7.06822 10.9221 7.02194 10.8779C6.97726 10.8342 6.93257 10.7906 6.88653 10.7457C6.8001 10.6614 6.71342 10.5773 6.62647 10.4935C6.53509 10.4051 6.44505 10.3153 6.35548 10.2251C6.21846 10.0892 6.07768 9.95921 5.93472 9.82969C5.64055 9.56307 5.36342 9.29538 5.10833 8.99027C5.02009 8.88478 5.02009 8.88478 4.87587 8.77641C4.74014 8.66782 4.64173 8.56246 4.52996 8.4305C4.34876 8.21765 4.15269 8.03926 3.93975 7.85888C3.80783 7.74094 3.70684 7.60523 3.5964 7.46719C3.52794 7.40588 3.45837 7.34578 3.38816 7.28648C3.08627 7.02499 2.80601 6.74376 2.52453 6.46063C2.4414 6.37738 2.4414 6.37738 2.35659 6.29244C2.21051 6.14614 2.06462 5.99966 1.91876 5.85314C1.77059 5.70436 1.62225 5.55575 1.47392 5.40712C1.21038 5.14301 0.946961 4.87878 0.683742 4.61434C0.583467 4.51382 0.482796 4.41372 0.381938 4.31379C0.0524228 3.97993 -0.000610258 3.64266 5.25502e-06 3.1841C0.0621738 2.75004 0.266414 2.49057 0.572556 2.20056C0.607508 2.16657 0.642459 2.13258 0.67847 2.09757C0.885837 1.89726 1.09751 1.70319 1.31759 1.51689C1.43646 1.41261 1.5518 1.30604 1.66675 1.19749C1.70569 1.16074 1.74463 1.12399 1.78475 1.08613C1.86233 1.01269 1.93973 0.939062 2.01692 0.865206C2.41375 0.490124 2.74212 0.201031 3.31001 0.188382Z" fill="#FFFFF7"/>
<path d="M62.6172 24V7.2H65.7852V13.872H66.2172L71.6652 7.2H75.7212L68.7132 15.48L75.9612 24H71.7852L66.2172 17.184H65.7852V24H62.6172ZM83.2851 24.336C81.9891 24.336 80.8451 24.104 79.8531 23.64C78.8611 23.176 78.0851 22.512 77.5251 21.648C76.9651 20.784 76.6851 19.744 76.6851 18.528V17.856H79.8051V18.528C79.8051 19.536 80.1171 20.296 80.7411 20.808C81.3651 21.304 82.2131 21.552 83.2851 21.552C84.3731 21.552 85.1811 21.336 85.7091 20.904C86.2531 20.472 86.5251 19.92 86.5251 19.248C86.5251 18.784 86.3891 18.408 86.1171 18.12C85.8611 17.832 85.4771 17.6 84.9651 17.424C84.4691 17.232 83.8611 17.056 83.1411 16.896L82.5891 16.776C81.4371 16.52 80.4451 16.2 79.6131 15.816C78.7971 15.416 78.1651 14.896 77.7171 14.256C77.2851 13.616 77.0691 12.784 77.0691 11.76C77.0691 10.736 77.3091 9.864 77.7891 9.144C78.2851 8.408 78.9731 7.848 79.8531 7.464C80.7491 7.064 81.7971 6.864 82.9971 6.864C84.1971 6.864 85.2611 7.072 86.1891 7.488C87.1331 7.888 87.8691 8.496 88.3971 9.312C88.9411 10.112 89.2131 11.12 89.2131 12.336V13.056H86.0931V12.336C86.0931 11.696 85.9651 11.184 85.7091 10.8C85.4691 10.4 85.1171 10.112 84.6531 9.936C84.1891 9.744 83.6371 9.648 82.9971 9.648C82.0371 9.648 81.3251 9.832 80.8611 10.2C80.4131 10.552 80.1891 11.04 80.1891 11.664C80.1891 12.08 80.2931 12.432 80.5011 12.72C80.7251 13.008 81.0531 13.248 81.4851 13.44C81.9171 13.632 82.4691 13.8 83.1411 13.944L83.6931 14.064C84.8931 14.32 85.9331 14.648 86.8131 15.048C87.7091 15.448 88.4051 15.976 88.9011 16.632C89.3971 17.288 89.6451 18.128 89.6451 19.152C89.6451 20.176 89.3811 21.08 88.8531 21.864C88.3411 22.632 87.6051 23.24 86.6451 23.688C85.7011 24.12 84.5811 24.336 83.2851 24.336ZM92.0078 24V7.2H95.1758V14.136H101.416V7.2H104.584V24H101.416V17.016H95.1758V24H92.0078ZM106.606 24L111.022 7.2H116.542L120.958 24H117.694L116.782 20.304H110.782L109.87 24H106.606ZM111.526 17.376H116.038L113.998 9.192H113.566L111.526 17.376ZM125.31 24V10.08H120.414V7.2H133.374V10.08H128.478V24H125.31ZM135.531 24V7.2H142.827C143.883 7.2 144.803 7.384 145.587 7.752C146.371 8.12 146.979 8.64 147.411 9.312C147.843 9.984 148.059 10.776 148.059 11.688V11.976C148.059 12.984 147.819 13.8 147.339 14.424C146.859 15.048 146.267 15.504 145.563 15.792V16.224C146.203 16.256 146.699 16.48 147.051 16.896C147.403 17.296 147.579 17.832 147.579 18.504V24H144.411V18.96C144.411 18.576 144.307 18.264 144.099 18.024C143.907 17.784 143.579 17.664 143.115 17.664H138.699V24H135.531ZM138.699 14.784H142.491C143.243 14.784 143.827 14.584 144.243 14.184C144.675 13.768 144.891 13.224 144.891 12.552V12.312C144.891 11.64 144.683 11.104 144.267 10.704C143.851 10.288 143.259 10.08 142.491 10.08H138.699V14.784ZM149.543 24L153.959 7.2H159.479L163.895 24H160.631L159.719 20.304H153.719L152.807 24H149.543ZM154.463 17.376H158.975L156.935 9.192H156.503L154.463 17.376ZM171.719 24V7.2H174.887V21.12H182.567V24H171.719ZM183.575 24L187.991 7.2H193.511L197.927 24H194.663L193.751 20.304H187.751L186.839 24H183.575ZM188.495 17.376H193.007L190.967 9.192H190.535L188.495 17.376ZM199.458 24V21.216H201.666V9.984H199.458V7.2H208.098C209.122 7.2 210.01 7.376 210.762 7.728C211.53 8.064 212.122 8.552 212.538 9.192C212.97 9.816 213.186 10.568 213.186 11.448V11.688C213.186 12.456 213.042 13.088 212.754 13.584C212.466 14.064 212.122 14.44 211.722 14.712C211.338 14.968 210.97 15.152 210.618 15.264V15.696C210.97 15.792 211.354 15.976 211.77 16.248C212.186 16.504 212.538 16.88 212.826 17.376C213.13 17.872 213.282 18.52 213.282 19.32V19.56C213.282 20.488 213.066 21.288 212.634 21.96C212.202 22.616 211.602 23.12 210.834 23.472C210.082 23.824 209.202 24 208.194 24H199.458ZM204.834 21.12H207.81C208.498 21.12 209.05 20.952 209.466 20.616C209.898 20.28 210.114 19.8 210.114 19.176V18.936C210.114 18.312 209.906 17.832 209.49 17.496C209.074 17.16 208.514 16.992 207.81 16.992H204.834V21.12ZM204.834 14.112H207.762C208.418 14.112 208.954 13.944 209.37 13.608C209.802 13.272 210.018 12.808 210.018 12.216V11.976C210.018 11.368 209.81 10.904 209.394 10.584C208.978 10.248 208.434 10.08 207.762 10.08H204.834V14.112ZM221.707 24.336C220.411 24.336 219.267 24.104 218.275 23.64C217.283 23.176 216.507 22.512 215.947 21.648C215.387 20.784 215.107 19.744 215.107 18.528V17.856H218.227V18.528C218.227 19.536 218.539 20.296 219.163 20.808C219.787 21.304 220.635 21.552 221.707 21.552C222.795 21.552 223.603 21.336 224.131 20.904C224.675 20.472 224.947 19.92 224.947 19.248C224.947 18.784 224.811 18.408 224.539 18.12C224.283 17.832 223.899 17.6 223.387 17.424C222.891 17.232 222.283 17.056 221.563 16.896L221.011 16.776C219.859 16.52 218.867 16.2 218.035 15.816C217.219 15.416 216.587 14.896 216.139 14.256C215.707 13.616 215.491 12.784 215.491 11.76C215.491 10.736 215.731 9.864 216.211 9.144C216.707 8.408 217.395 7.848 218.275 7.464C219.171 7.064 220.219 6.864 221.419 6.864C222.619 6.864 223.683 7.072 224.611 7.488C225.555 7.888 226.291 8.496 226.819 9.312C227.363 10.112 227.635 11.12 227.635 12.336V13.056H224.515V12.336C224.515 11.696 224.387 11.184 224.131 10.8C223.891 10.4 223.539 10.112 223.075 9.936C222.611 9.744 222.059 9.648 221.419 9.648C220.459 9.648 219.747 9.832 219.283 10.2C218.835 10.552 218.611 11.04 218.611 11.664C218.611 12.08 218.715 12.432 218.923 12.72C219.147 13.008 219.475 13.248 219.907 13.44C220.339 13.632 220.891 13.8 221.563 13.944L222.115 14.064C223.315 14.32 224.355 14.648 225.235 15.048C226.131 15.448 226.827 15.976 227.323 16.632C227.819 17.288 228.067 18.128 228.067 19.152C228.067 20.176 227.803 21.08 227.275 21.864C226.763 22.632 226.027 23.24 225.067 23.688C224.123 24.12 223.003 24.336 221.707 24.336Z" fill="#FFFFF7"/>
</svg>
