<svg preserveAspectRatio="none" width="100%" height="100%" overflow="visible" style="display: block;" viewBox="0 0 40 13" fill="none" xmlns="http://www.w3.org/2000/svg">
<g id="Frame 176">
<path id="Vector" d="M0.244504 1.48756L3.27985 5.82088C3.53818 6.20893 3.53818 6.79107 3.27985 7.17912L0.17992 11.5124C-0.272149 12.1592 0.179919 13 0.954901 13H5.21729C5.79852 13 6.3152 12.7413 6.70267 12.2239L10.061 7.5025C10.513 6.92042 10.513 6.07958 10.061 5.49751L6.70267 0.776119C6.37975 0.258706 5.79852 0 5.21729 0H1.01949C0.244503 0 -0.207571 0.840794 0.244504 1.48756Z" fill="var(--fill-0, #1D1D1B)"/>
<path id="Vector_2" d="M14.6445 1.48756L17.6799 5.82088C17.9382 6.20893 17.9382 6.79107 17.6799 7.17912L14.5799 11.5124C14.1279 12.1592 14.5799 13 15.3549 13H19.6173C20.1985 13 20.7152 12.7413 21.1027 12.2239L24.461 7.5025C24.913 6.92042 24.913 6.07958 24.461 5.49751L21.1027 0.776119C20.7798 0.258706 20.1985 0 19.6173 0H15.4195C14.6445 0 14.1924 0.840794 14.6445 1.48756Z" fill="var(--fill-0, #1D1D1B)"/>
<path id="Vector_3" d="M29.0445 1.48756L32.0799 5.82088C32.3382 6.20893 32.3382 6.79107 32.0799 7.17912L28.9799 11.5124C28.5279 12.1592 28.9799 13 29.7549 13H34.0173C34.5985 13 35.1152 12.7413 35.5027 12.2239L38.861 7.5025C39.313 6.92042 39.313 6.07958 38.861 5.49751L35.5027 0.776119C35.1798 0.258706 34.5985 0 34.0173 0H29.8195C29.0445 0 28.5924 0.840794 29.0445 1.48756Z" fill="var(--fill-0, #1D1D1B)"/>
</g>
</svg>
