<svg preserveAspectRatio="none" width="100%" height="100%" overflow="visible" style="display: block;" viewBox="0 0 1688 701" fill="none" xmlns="http://www.w3.org/2000/svg">
<path id="Vector" opacity="0.15" d="M11.39 608.15C108.06 606.88 204.74 621.15 300.12 635.29C398.6 649.9 497.6 664.29 596.93 672.29C687.81 679.64 776.5 672.19 866.93 662.48C994.61 648.77 1121.98 632.62 1249.51 617.66C1393.96 600.66 1540.05 579.41 1685.65 576.36M20.36 584.51C114.72 581.99 209.17 594.07 302.25 608.4C325.56 611.99 348.77 616.4 372.11 619.82C402.26 624.2 432.94 624.38 463.39 628.82C508.98 635.51 554.53 642.62 600.39 647.5C691.88 657.24 780.07 648.1 871.04 637.41C999.18 622.35 1126.94 604.61 1255.04 588.87C1396.86 571.45 1539.68 550.63 1682.55 544.32M28.05 558.74C117.56 555.32 207.05 565.04 295.33 579.29C319.98 583.29 344.84 589.58 369.6 592.49C387.42 594.59 405.27 590.6 423.12 591.92C437.62 592.99 452.32 596.49 466.65 599.01C513.44 607.25 560.06 616.68 607.11 623.37C697.85 636.27 783.93 625.75 874.25 614.3C1000.31 598.3 1125.84 578.86 1251.85 562.67C1393.27 544.5 1535.18 523.83 1677.49 513.91M34.66 531.12C120.66 527.12 206.38 535.17 291.06 550.05C313.62 554.05 335.96 559.37 358.53 563.16C383.07 567.29 406.97 557.08 431.43 560.37C444.07 562.07 456.67 565.22 469.13 567.9C515.45 577.9 561.34 589.81 607.87 598.8C647.64 606.49 688.21 612.3 728.82 610.49C778.19 608.3 827.91 599.4 876.82 592.8C1003.3 575.73 1129 553.91 1255.43 536.98C1393.69 518.47 1532.06 498.6 1670.92 484.98M40.4 501.91C122.78 497.78 204.4 504.48 285.31 520.28C307.12 524.54 329.48 532.17 351.44 534.76C379.22 538.04 406.28 524.58 433.87 526.92C447.81 528.1 462.71 533.78 476.17 537.35C520.23 549.02 563.63 563.08 607.8 574.35C646.36 584.21 686.06 592.35 726.06 591.51C776.85 590.51 828.49 579.75 878.69 572.62C943.1 563.48 1007.89 555.74 1072.07 545.09C1131.76 535.18 1190.58 522.09 1250.58 513.68C1388 494.52 1525.42 475.26 1663.04 457.54M45.48 471.39C122.82 467.61 198.8 473.02 274.55 489.39C295.93 494.01 317.55 502.04 339.12 505.23C373.12 510.23 406.76 491.23 441.06 494.66C453.06 495.87 466.06 501.76 477.54 505.37C521.18 519.22 563.76 536.08 607.26 550.22C644.53 562.34 683.26 573 722.73 573.33C772.44 573.75 823.59 561.82 872.59 554.58C939.15 544.75 1006.19 536.58 1072.46 525.09C1130.26 515.02 1186.74 500.09 1244.91 491.71C1381.3 471.92 1517.98 453.58 1654.01 431.45M50.1 439.83C123.66 436.83 195.1 441.65 266.82 459.14C287.94 464.3 309.2 472.9 330.51 476.78C368.6 483.78 405.88 455.64 443.44 462.53C456.54 464.94 469.15 470.06 481.61 474.69C525.05 490.85 566.92 510.8 610.01 527.8C644.89 541.56 681.43 554.19 719.22 555.75C770.16 557.86 824.11 543.75 874.16 536.06C942.59 525.58 1012.09 517.91 1080.01 504.5C1134.6 493.73 1187.56 478.57 1242.76 470.22C1376.51 450.06 1511.42 433.05 1644.12 406.57M54.46 407.51C126.19 405.7 194.75 410.84 264.12 430.27C284.12 435.87 307.25 448.27 327.52 450.27C344.64 452.02 365.78 445.7 381.63 441.99C397.63 438.23 428.63 427.23 445.87 429.7C457.94 431.42 471.35 439.05 482.54 443.77C525.82 462.03 566.93 484.77 609.43 504.72C643.08 520.48 678.76 535.72 716.25 538.48C767.45 542.26 823.78 526.01 873.96 518.09C941.56 507.42 1010.14 499.56 1077.25 486.23C1133.18 475.12 1186.69 458.08 1243.25 449.23C1373.06 428.92 1505.57 413.52 1633.48 382.91M58.76 374.69C129.87 374.59 196.76 380.81 264.83 402.63C284.41 408.9 303.73 418.3 323.55 423.47C336.76 426.92 354.03 421.3 367.48 418.47C391.08 413.47 427.79 394.91 452.34 400.82C464.6 403.82 477.2 411.18 488.56 416.57C530.01 436.25 568.97 460.57 609.31 482.3C641.86 499.85 676.8 517.54 714.15 521.24C733.6 523.16 752.51 519.51 771.68 516.56C805.51 511.35 839.29 505.83 873.08 500.34C941.27 489.28 1010.8 481.57 1078.4 467.34C1131.4 456.23 1181.83 439.04 1235.54 430.34C1310.21 418.2 1384.91 406.18 1459.44 393.19C1513.84 383.71 1569.28 375.33 1622.51 360.36M63.22 341.64C134.38 342.09 201.15 352.28 268.52 375.69C289.96 383.14 311.75 395.27 333.96 399.56C369.96 406.5 407.82 371.78 444.34 374.42C459.14 375.5 471.49 382.54 484.9 388.96C528.16 409.69 570.01 433.22 613.29 453.89C648.29 470.59 685.68 487.37 724.71 491.23C770.6 495.76 821.8 481.49 867.29 475.81C934.21 467.46 1002.09 460.81 1068.2 447.22C1124.13 435.72 1178.57 420.36 1235.02 410.89C1306.89 398.89 1378.76 386.72 1450.44 373.52C1504.17 363.62 1558.96 354.67 1611.31 338.7M68.02 308.64C141.62 309.2 210.92 324.64 279.79 350.07C299.5 357.35 324.99 373.81 345.79 376.28C359.29 377.88 378.29 368.91 389.44 364.56C400.59 360.21 426.44 347.12 439.69 348.24C451.82 349.24 467.56 359.29 478.94 363.81C527.85 383.24 576.88 402.63 627.13 418.36C667.38 430.96 709.53 442.53 751.97 443.49C792.55 444.4 833.76 438.49 874.58 438.41C993.19 438.17 1106.58 413.91 1223.05 393.99C1295.39 381.61 1367.7 368.99 1439.74 354.99C1493.33 344.58 1548.18 335.11 1600.15 317.99M73.35 275.96C148.82 276.44 219.99 298.18 289.43 326.18C309.26 334.18 329.85 346.6 350.43 352.04C377.54 359.22 404.93 330.3 432.12 328.79C448.34 327.9 461.05 335.43 476.21 341.59C526.6 362.03 577.97 380.44 630.37 395.04C672.47 406.77 716.29 417.22 760.2 418.04C798.78 418.79 836.56 414.04 875.44 416.22C992.26 422.85 1107.82 395.77 1222.44 375.65C1291.91 363.45 1361.31 350.75 1430.44 336.75C1483.44 326.01 1538.16 316.24 1589.25 297.99M79.43 243.87C158.1 244.44 232.9 273.92 303.86 305.2C323.61 313.91 345.43 328.49 366.52 332.88C392.65 338.31 417.52 308.66 443.94 311.21C458.33 312.6 472.16 321.4 485.38 327.21C532.76 347.91 581.06 366.85 630.49 382.09C671.24 394.66 713.88 406.01 756.74 407.39C794.65 408.62 833.19 402.65 871.33 402.64C987.87 402.64 1105.22 380.51 1219.56 359.51C1289.42 346.677 1359.13 332.877 1428.68 318.11C1478.76 307.45 1531.06 297.92 1578.76 278.78M86.48 212.65C136.64 213.35 185.48 228.43 231.9 246.42C258.68 256.81 284.95 268.51 310.97 280.66C337.53 293.05 374.03 321 403.53 314.92C419.562 306.305 436.905 300.393 454.86 297.42C462.24 301.12 469.643 304.787 477.07 308.42C492.103 315.753 507.233 322.863 522.46 329.75C552.25 343.24 582.46 355.92 613.16 367.14C661.41 384.77 715.33 403.28 767.5 400.68C817.91 398.15 869.5 391.2 919.78 385.84C956.34 381.94 992.4 375.14 1028.78 370.39C1076.3 364.19 1124.14 360.49 1171.51 353.18C1247.91 341.39 1323.51 322.69 1399.05 306.46C1455.31 294.38 1516.36 284.39 1569.05 260.19M94.69 182.58C148.34 183.89 200.69 203.3 249.5 224.07C278.07 236.23 306.11 249.63 333.91 263.46C348.537 270.727 363.103 278.113 377.61 285.62C396.93 295.56 407.06 305.45 429.39 298.97C441.19 290.757 453.92 287.757 467.58 289.97C474.86 293.87 482.157 297.727 489.47 301.54C504.097 309.18 518.82 316.633 533.64 323.9C562.08 337.81 590.91 350.98 620.36 362.61C664.36 379.98 713.76 398.19 761.84 395.78C810.45 393.34 861.05 379.6 909.03 371.32C945.51 365.02 981.83 357.32 1018.64 353.14C1070.78 347.23 1123.31 345.07 1175.36 338.31C1248.79 328.77 1320.87 306.97 1393.04 290.79C1448.04 278.45 1509.84 268.47 1560.33 242.05M104.26 153.91C161.04 155.65 216.66 179.39 267.54 202.67C297.75 216.5 327.4 231.55 356.82 246.99C371.96 254.95 387.053 263.01 402.1 271.17C420.81 281.28 430.75 290.68 452.32 285.08C475.32 279.08 482.13 285.26 502.21 296.33C516.47 304.177 530.803 311.873 545.21 319.42C569.16 331.88 593.4 343.83 618.15 354.61C660.85 373.19 710.35 393.81 757.99 390.73C809.1 387.44 861.99 366.84 911.72 355.23C1000.32 334.54 1088.84 333.75 1178.96 323.99C1250.07 316.29 1318.81 291.92 1388.25 275.67C1441.89 263.11 1504.73 253.04 1552.75 224.38M115.37 126.92C174.63 128.52 233.22 156.83 285.45 182.34C317.05 197.78 348.05 214.43 378.81 231.47C390.47 237.917 402.093 244.423 413.68 250.99C427.2 258.63 443.87 272.61 459.81 273.99C468.057 271.42 476.899 271.479 485.11 274.16C492.363 278.353 499.623 282.523 506.89 286.67C521.123 294.79 535.42 302.79 549.78 310.67C576.42 325.19 603.4 339.18 631.16 351.46C669.95 368.61 714.35 386.82 757.64 383.29C806.39 379.29 855.21 356.69 902.05 343.41C939.38 332.83 976.84 323.83 1015.57 320.41C1075.57 315.12 1135.99 315.86 1195.79 308.73C1259.66 301.12 1320.79 276.49 1383.06 261.35C1435.77 248.53 1500.81 238.22 1546.62 207.1M128.25 101.88C187.84 103.16 247.16 134.67 298.8 161.46C326.62 175.89 353.95 191.24 381.08 206.9C410.01 223.6 441.32 249.48 473.41 259C504.76 268.29 532.52 288.07 561.33 303.76C584.55 316.41 608.05 328.62 632.15 339.51C671.88 357.45 717.49 376.23 762.05 371.84C814.05 366.71 865.69 343.2 915.79 329.42C1006.79 304.36 1100.32 303.48 1193.54 291.62C1257.18 283.51 1318.95 262.42 1380.99 246.67C1432.43 233.62 1498.66 222.81 1542.11 189.95M143.1 79.08C202.76 80.47 261.96 114.22 312.86 142.14C371.94 174.56 427.37 213.96 486.86 245.36C539.73 273.25 589.61 306.07 644.46 330.36C682.55 347.23 726.34 364.41 768.84 359.9C822.5 354.19 876.66 336.39 929.26 324.76C1016.53 305.47 1102.78 284.04 1189.4 261.98C1252.6 245.88 1317.53 248.84 1380.34 232.18C1430.87 218.78 1497.8 207.18 1539.45 172.99M160.08 58.84C216.31 60.94 271.08 92.05 319.08 118.84C378.76 152.22 435.21 190.6 493.56 226.11C545.56 257.77 597.66 290.37 652.87 316.32C690.61 334.05 734.46 352.5 777.19 348.05C833.13 342.23 890.05 325.78 945.13 314.71C979.39 307.82 1014.32 302.22 1047.77 291.92C1099.43 276.02 1148.77 253.27 1200.5 237.67C1232.04 228.17 1262.09 225.47 1294.88 226.44C1329.61 227.44 1359.24 223.68 1392.79 214.1C1439.95 200.64 1500.56 188.63 1538.93 156.1M178.23 42.95C234.06 45.66 288.46 71.66 337.51 96.58C368.9 112.53 399.51 129.99 429.71 148.09C457.71 164.9 484.71 185.29 514.71 198.27C571.99 223.05 620.17 264.42 673.58 296.54C706.42 316.3 744.17 337.36 783.77 334.83C836.25 331.47 890.92 313.78 942.33 302.74C981.33 294.35 1020.63 286.82 1058.72 274.85C1100.96 261.58 1142.19 245.27 1184.56 232.41C1251.29 212.15 1321.17 215.18 1388.09 195.56C1438.15 180.89 1496.09 168.02 1539.84 138.56M197.17 31.67C252.47 32.43 307.39 51.88 357.72 73.31C384.92 84.89 411.52 97.86 437.62 111.74C465.16 126.39 491.44 145.5 520.16 157.67C549.27 170 575.46 172.38 600.65 192.06C612.97 201.69 624.97 211.72 636.82 221.93C655.28 237.85 673.24 254.35 691.87 270.05C718.69 292.65 751.08 320.43 788.24 320.14C811.44 319.95 836.16 311.8 858.76 307C887.427 300.9 916.023 294.567 944.55 288C1018.99 270.94 1091.37 248.9 1164.87 228.36C1235.62 208.58 1307.93 195.92 1378.52 175.52C1432.86 159.82 1490.42 145.47 1541.38 120.43M217.04 24.4C272.11 24.94 326.98 38.89 378.47 57.58C405.376 67.3992 431.713 78.7101 457.36 91.46C489.65 107.46 518.66 127.21 553.36 137.57C584.36 146.82 602.91 148.83 626.18 168.67C636.31 177.3 645.99 186.41 655.4 195.82C672.24 212.64 687.88 230.56 704.05 248C726.64 272.39 754.16 304.59 790.33 305C813.33 305.24 838.45 296.86 860.82 292C889.66 285.78 918.41 279.08 947.09 272.16C1016.23 255.49 1085 237.38 1153.63 218.74C1283.56 183.46 1416.63 150.23 1542.63 102.23M237.97 20.52C291.19 20.69 344.43 32.85 394.74 49.47C422.239 58.5832 449.184 69.288 475.44 81.53C502.9 94.31 528.44 111.81 556.34 123.42C585.85 135.7 612.4 136.74 636.91 157.98C645.27 165.22 653.3 172.83 661.13 180.64C677.54 197 692.69 214.53 708.26 231.64C730.01 255.58 756.38 287.56 791.57 288.8C812.91 289.55 836.32 281.91 857.04 277.46C886.13 271.21 915.04 264.25 943.93 256.99C1016 238.88 1084.68 214.34 1155.55 192.48C1226.69 170.55 1300.38 159.7 1371.38 137.34C1428.44 119.34 1485.38 100.91 1542.88 84.34M260.13 19.42C317.29 19.77 374.46 32.58 428.68 49.92C457.498 59.1258 485.761 69.9838 513.33 82.44C541.87 95.34 568.56 112.53 597.46 124.44C647.37 144.96 679.66 185.22 716.19 223.6C736.62 245.07 760.75 271.08 792.48 272.51C811.96 273.39 832.91 266.87 851.86 262.8C880.76 256.58 909.46 249.38 938.04 241.8C970.98 233.09 1004.89 225.26 1036.42 212.17C1077.1 195.28 1115.12 172.64 1155.87 155.92C1222.42 128.62 1295.76 137.79 1364.14 116.22C1422.14 97.92 1481.14 77.97 1541.22 67.33M283.62 20.49C398.29 23.31 515.34 62.94 613.44 121.19C653 144.68 684.14 177.67 716.64 209.73C737.64 230.44 762.45 255.23 793.92 256.3C838.67 257.82 889.98 238.25 932.4 226.36C965.12 217.18 999.2 209.11 1029.6 193.55C1072.42 171.65 1110.83 141.81 1154.35 121.21C1182.56 107.85 1211.18 104.87 1242.04 106.69C1277.71 108.8 1307.77 108.08 1342.04 97.59C1404.9 78.32 1470.96 56.43 1536.92 51.59M308.6 23.11C415.73 26.46 524.87 62.03 616.38 117.34C653.46 139.75 684.67 168.48 717.22 196.71C739.74 216.24 765.1 237.71 796.4 238.85C840.4 240.49 891.14 221.85 932.65 209.65C962.75 200.81 993.48 192.23 1021.05 176.93C1059.56 155.57 1093.99 127.45 1133.05 107.08C1164.37 90.75 1193.62 87.23 1228.3 88.46C1262.49 89.66 1290.68 86.74 1323.79 77.07C1390.18 57.69 1459.37 38.3 1528.98 37.53M335.2 26.65C437.1 29.65 532.86 63.32 620 114.95C655.8 136.15 688 161.4 721.87 185.32C744.95 201.6 770.39 217.32 799.51 217.95C841.09 218.95 887.03 205.75 926.64 194.74C955.81 186.64 985.1 177.74 1011.44 162.54C1043.14 144.25 1071.8 121.13 1103.66 103.08C1134.9 85.38 1166.25 79.74 1201.66 76.56C1236.17 73.6576 1270.32 67.4729 1303.66 58.09C1372.66 38.72 1444.66 21.88 1516.73 25.66M363.58 30.52C458.58 32.4 540.31 62.7 621.79 109.46C676.46 140.84 738.69 195.24 805.15 196.09C844.65 196.6 885.91 189.7 924.07 180.2C949.69 173.83 975.51 165.93 998.57 152.88C1025.57 137.59 1049.65 117.56 1076.57 102.11C1135.15 68.54 1208.21 63.22 1272.4 44.84C1345.94 23.77 1422.8 8.44999 1499.49 16.41M393.87 34.08C437.65 34.53 480.87 38.74 522.75 52.3C560.75 64.6 595.26 84.05 629.82 103.7C687.37 136.43 746.92 175.02 815.32 176.28C851.99 176.95 889.07 175.46 924.98 167.55C975.98 156.33 1010.09 127.85 1054.05 102.33C1084.05 84.9 1117.64 74.14 1150.69 64.05C1187.02 52.97 1223.13 40.76 1259.69 30.46C1330.52 10.46 1403.06 -0.649986 1476.34 10.26M1401.13 1.04001C1472.05 9.29001 1516.68 47.09 1518.22 119.45C1519.12 161.84 1518.55 203.37 1533.52 243.59C1551.73 292.49 1580.44 336.68 1600.92 384.59C1631.92 457.07 1646.63 532.28 1646.19 611.13M1355.23 1C1424.67 13.22 1479.4 58.69 1485.84 130.57C1489.51 171.51 1488.59 215.14 1501.18 254.57C1516.45 302.45 1543.5 345.57 1561.55 392.34C1589.02 463.54 1599.91 537.53 1598.11 613.7M1309.04 6.61002C1374.86 22.34 1437.57 73.93 1446.31 143.29C1449.31 166.91 1454.47 187.72 1453.81 211.64C1453.43 230.019 1455.71 248.356 1460.59 266.08C1473.08 312.95 1498.4 355.2 1514.28 400.88C1538.69 471.06 1546.28 543.77 1543.56 617.77M1262.9 16.96C1300.3 28.61 1332.64 51.96 1359.84 79.85C1384.18 104.79 1395.08 126.18 1400.84 159.63C1404.63 181.81 1411.58 199.77 1409.56 222.37C1407.89 240.965 1409.06 259.704 1413.01 277.95C1422.3 321.26 1444.13 360.74 1458.01 402.61C1481.7 474.04 1487.01 548.24 1483.64 623.04M1217.08 31.22C1253.44 44.44 1287.18 71.7 1313.66 99.3C1336.24 122.83 1344.14 141.08 1349.41 172.3C1353.41 195.83 1362.5 212.68 1359.1 236.72C1356.62 254.484 1356.84 272.519 1359.73 290.22C1366.57 333.43 1387.35 373.22 1399.73 414.92C1420.34 484.74 1423.05 557.1 1419.28 629.41M1164.97 48.89C1198.97 64.84 1236.69 72.16 1263.61 100.52C1276.61 114.17 1284.69 130.13 1289.61 148.31C1293.09 161.2 1291.84 175.08 1295.74 187.49C1299.25 198.68 1309.74 205.64 1313.74 216.29C1317.74 226.76 1315.22 234.55 1314.24 245.43C1312.53 264.28 1312.24 283.37 1310.76 302.27C1307.27 348.07 1326.76 386.7 1337.76 430.27C1354.89 497.82 1355.95 567.16 1351.5 636.35M1109.15 69.01C1142.43 80.37 1186.38 69.19 1214.95 94.67C1233.35 111.08 1235.27 141.38 1236.51 164.14C1237.14 175.56 1232.89 192.45 1239.45 202.26C1245.35 211.1 1258.21 210.76 1265.78 216.9C1278.58 227.31 1273.13 235.85 1273.23 251.97C1273.39 275.53 1272.98 292.36 1263.85 314.4C1256.85 331.34 1249.5 348.47 1251.75 367.24C1254.45 389.88 1265.21 413.04 1270.46 435.38C1286.57 503.95 1286.85 574.04 1281.6 643.95M1060.47 89.82C1092.47 102.89 1143.11 73.5 1169.64 106.18C1181.55 120.85 1180.24 152.02 1179.93 168.91C1179.78 177.14 1172.34 208.28 1179.01 216.71C1187.6 227.56 1205.57 219.91 1215.64 226.71C1226.79 234.26 1220.9 249.54 1221.32 263.05C1222.14 288.66 1221.79 304.96 1208.21 326.64C1197.38 343.93 1184.21 360.52 1186.74 382.16C1189.34 404.26 1199.21 426.75 1203.65 448.77C1217.17 515.77 1216.13 584.01 1210.41 651.87M1027.17 109.76C1037 117.64 1053.23 115.89 1065.07 118.27C1082.07 121.7 1100.79 125.75 1110.27 142.14C1119.36 157.85 1118.7 181.44 1118.72 198.62C1118.72 210.62 1113.84 226.31 1121.58 236.39C1127.11 243.59 1141.96 242.16 1146.69 249.45C1152.28 258.06 1146.79 267.04 1144.23 276.66C1138.92 296.55 1134.23 316.12 1127.92 335.73C1122.31 353.16 1116.45 372.58 1119.41 391.11C1123.52 416.81 1143.41 434.86 1147.54 461.59C1157.54 526.85 1145.71 594.94 1139.05 659.94M1000.97 128.64C999.65 143.4 1035.35 167.95 1042.59 180.43C1056.03 203.61 1052.14 225.27 1058.23 249.67C1063.04 268.96 1080.46 280.04 1059.54 295.75C1050.54 302.52 1041.86 304.12 1037.78 315.16C1034.98 322.75 1037.31 334.43 1038.19 342.47C1040.55 363.621 1045.36 384.426 1052.51 404.47C1062.92 433.47 1096.86 441.47 1098.91 475.22C1102.8 539.06 1077.91 605.32 1068.56 667.91M968.93 146.36C960.74 162.55 978.62 187.24 985.28 201.36C996.03 224.16 998.08 242.53 1000.41 266.87C1002.41 287.87 1012.06 306.99 985.15 312.87C972.62 315.6 965.98 314.7 962.33 328.35C960.4 335.57 963.88 345.35 965.69 352.18C971.54 374.025 979.12 395.369 988.36 416.01C1000.56 442.6 1037.08 451.35 1038.72 483.44C1040.09 510.29 1033.03 536.94 1026.11 562.63C1016.02 600.13 1006.29 637.1 999.99 675.49M933.17 157.74C918.17 172.15 931.04 200.3 936 216.53C942.72 238.53 944 257.62 944.9 280.23C945.75 300.69 951.33 317.66 927.77 325.4C906.9 332.25 904.22 342.73 910.25 363.33C915.8 382.26 924.92 401.03 931.55 419.63C940.64 445.1 961.4 467.39 962.97 495.11C966.5 557.56 944.97 621.61 934.38 682.53M899.05 162.49C877.86 177.71 885.76 212.22 888.95 233.62C891.799 252.209 893.16 270.995 893.02 289.8C892.83 309.25 894.49 322.88 878.69 336.2C864.06 348.54 854.17 351.54 861.92 373.35C867.32 388.54 878.7 400.74 882.31 416.83C889.01 446.74 880.44 479.83 883.63 510.64C889.82 570.37 881.82 629.79 872.79 688.82M868.32 163.08C829.76 196.97 849.4 258.89 845.76 304.51C844.29 322.84 840.21 334.95 828.42 348.85C819.55 359.31 812.08 368.61 818.42 382.52C823.42 393.61 834.8 399.96 837.73 412.7C841.59 429.38 828.3 449.34 822.03 464.53C813.23 485.83 805.87 500 809.8 522.36C820.01 580.54 824.21 635.13 816.31 694.1M842.76 161.96C799.3 195.96 810.3 259.22 804.76 308.3C802.31 330.15 794.28 341.8 783.52 360.13C777.95 369.62 770.81 380.65 776.93 391.13C782.77 401.13 793.93 402.37 795.84 416.21C798.98 438.88 770.01 469.42 760.44 487.91C752.12 503.96 747.98 513.22 750.76 531.22C753.98 552.22 760.88 572.67 765.03 593.52C772.03 628.87 771.33 662.52 765.87 698.13M821.64 160.81C775.76 196.93 786.76 257.28 777.2 308.63C773.12 330.46 762.8 345.37 751.39 363.63C745.84 372.53 738.76 382.69 742.71 393.23C746.35 402.94 756.09 405.9 757.11 418.4C758.97 441.33 732.49 469.68 722.76 488.74C714.69 504.55 710.5 514.62 712.1 532.46C714.05 554.2 719.61 575.58 722.64 597.18C727.58 632.36 726 665.62 719.29 700.5M801.34 158.91C753.82 194.22 767.48 248.22 752.41 298.22C745.54 321.02 730.64 340.05 717.46 359.34C711.97 367.34 704.21 377.19 705.14 387.46C705.97 396.55 712.48 403.89 712.38 413.87C712.17 436.65 692.65 460.2 683.64 480.21C676.64 495.77 673.28 507.02 673.76 524.21C675.46 584.97 684.86 640.1 671.15 700.67M781.28 155.86C732.58 187.19 747.6 236.65 726.04 282.42C715.14 305.55 697.43 325.97 682.04 346.25C675.63 354.67 666.67 365.11 663.61 375.53C661.08 384.14 663.12 393.71 662.45 402.53C659.52 440.82 634.1 472.03 634.02 511.8C633.89 575.33 637.62 636.57 621.7 698.8M761.02 151.22C736.28 163.97 725.02 178.8 718.22 205.01C713.15 224.69 709.8 243.39 698.03 260.54C674.3 295.11 642.57 324.06 618.94 358.54C612 368.68 610.67 378.99 608.74 391.1C603.86 421.7 594.74 451.26 593.01 482.34C588.87 554.26 590.65 625.26 571.13 695.34M740.12 144.72C718.95 152.72 704.62 160.72 695.42 181.55C688.54 197.13 684.53 212.22 674.21 226.22C652.44 255.63 624.67 281.36 600.55 308.97C591.55 319.32 582.46 328.51 572.55 337.9C540.8 368.05 552.84 427.01 549.65 466.4C543.53 541.88 541.46 617.51 519.87 690.64M718.12 135.86C699.9 140.61 681.12 144.22 668.93 159.45C658.58 172.36 651.65 186.75 640.16 199.21C612.87 228.79 583.16 255.99 556.16 285.86C546.795 296.285 536.539 305.874 525.51 314.52C512.24 324.96 502.21 337.57 499.85 355.04C498.21 367.13 502.14 379.63 504.25 391.37C507.78 411.05 506.44 427.84 504.48 447.59C496.58 527.22 491.76 607.79 468.24 684.74M694.59 124.28C678.26 127.19 653.5 126.71 638.88 136.07C626.62 143.91 616.41 158.75 605.88 168.5C574.16 197.99 541.46 226.26 512.5 258.5C502.346 269.968 491.085 280.405 478.88 289.66C464.5 300.58 452.57 313.34 449.42 332.01C447.33 344.46 450.55 353.69 454.61 365.14C461.54 384.71 460.8 399.33 458.52 419.75C448.83 506.25 442.57 594.57 416.52 678.06M629.54 87.58C617.42 90.58 609.64 91.09 605.86 102.92C604.32 107.75 609.12 109.21 605.86 113.72C602.49 118.42 558.04 114.63 551.86 115.25C533.57 117.08 522.26 119.14 512.16 134.45C501.06 151.22 496.87 173.55 489.76 192.15C483.48 208.58 475.43 220.02 465.55 234.09C449.34 257.19 439.45 275.38 415.3 291.77C390.9 308.31 361.98 322.22 348.84 350.22C341.99 364.76 337.32 379.8 329.73 394.4C321.41 410.4 319.99 425.28 321.73 443.08C329.49 520.46 384.3 591.4 365.01 670.96M605.61 75.03C592.33 77.26 586.7 80.03 576.12 86.03C573.18 87.69 573.61 91.88 569.65 93.81C558.78 99.09 530.65 92.64 518.65 93.16C500.56 93.93 481.36 93.75 470.3 109.95C458.03 127.95 452.3 150.43 443.19 170.01C436.56 184.3 427.36 195.23 418.62 208.08C402.88 231.24 391.96 249.83 369.23 267.43C346.23 285.22 318.86 301.57 306.05 328.82C299.26 343.27 295.59 358.5 288.25 372.99C279.9 389.49 276.76 403.29 277.7 421.83C281.81 503.6 334.17 580.66 314.16 663.5M583.21 64.4C564.21 66.23 547.01 74.91 528.74 75.96C498.13 77.71 451.69 62.59 428.74 89.23C416.03 104 409.29 124.17 400.13 141.16C392.79 154.8 383.39 166.16 374.64 178.79C358.16 202.59 346.27 224.55 324.64 244.66C300.85 266.79 273.26 288.52 263.64 320.95C253.64 354.49 237.64 381.47 239.64 417.6C243.98 497.2 285.27 576.32 264.13 656.16M561.36 55.63C536.45 56.63 511.36 61.74 486.5 60.24C457.31 58.47 411.62 48.77 387.99 70.53C373.64 83.75 365.25 104.69 354.6 120.6C346.6 132.53 336.94 143.09 328.91 154.98C313.02 178.52 300.76 202.23 281.98 223.98C260.81 248.45 237.19 273.3 228.46 305.38C218.86 340.6 204.71 372.64 205.25 409.8C206.42 489.22 239.3 570.82 215.37 649.22M539.08 48.63C508.38 48.51 477.68 49.93 447.08 47.15C416.99 44.42 374.39 36.34 348.38 55.56C334.07 66.14 324.65 82.89 313.94 96.82C305.35 108.01 295.47 117.99 287.37 129.58C270.37 153.91 257.95 181.16 241.15 205.78C201.71 263.57 175.55 333.78 173.65 404.47C171.53 483.3 195.43 566.47 168.13 642.82M515.4 43.33C478.01 42.04 440.97 40.02 403.76 36.22C374.41 33.22 336.94 28.02 310.19 43.22C286.28 56.79 260.5 89.27 245.13 111.77C228.32 136.38 216.41 164.43 202.33 190.66C167.79 255 148.92 328.46 144.03 401.4C138.79 479.4 153.45 563.4 122.74 637.4M489.35 39.63C447.35 37.33 405.79 32.56 363.96 28.21C334.96 25.21 301.13 21.94 273.84 34.38C217.01 60.3 188.64 125.6 165.68 178.97C135.68 248.56 122.81 324.85 115.15 399.97C107.26 477.31 113.25 561.19 79.55 633.15M459.96 37.46C415.62 34.46 371.91 28 327.78 23.32C298.14 20.18 265.87 18.43 237.69 29.93C179.63 53.63 151.14 116.27 131.28 171.27C105.2 243.47 96.03 320.49 86.39 396.27C76.46 474.35 75.27 558.9 38.84 630.36M426.24 36.75C466.78 37.1 507.62 39.04 546.69 50.8C578.82 60.46 608.75 76.04 637.98 92.24C703.06 128.31 757.26 157.16 831.98 161.44C865.46 163.36 899.11 164.94 932.15 157.87C976.94 148.29 1006.88 120.71 1045.07 98.23C1103.65 63.76 1174.34 44.07 1238.87 24.02C1306.95 2.84999 1375.87 -5.88998 1446.35 7.64002C1478.19 9.38002 1515.92 13.72 1533.35 44.34C1544.84 64.46 1543.49 89.92 1541.95 112.15C1538.95 155.99 1538.71 191.96 1556.29 233.15C1577.23 282.23 1606.73 327.29 1629.82 375.35C1665.68 449.82 1685.26 527.42 1686.76 610.22C1541.37 610.22 1394.84 631.38 1250.6 647.44C1121.11 661.87 991.71 677.44 862.02 689.92C771.56 698.65 682.51 703.48 591.7 697.04C491.59 689.94 392.23 675.04 293 660.44C196.47 646.26 98.79 629.69 1 629.44C37.63 559.51 45.27 477.22 55.42 400.22C65.67 322.42 74.24 242.88 99.32 168.13C117.85 112.92 149.2 47.87 208.22 27.13C234.97 17.75 263.83 18.63 291.64 21.25C336.64 25.49 381.1 33.49 426.24 36.75Z" stroke="url(#paint0_linear_0_19)" stroke-miterlimit="10"/>
<defs>
<linearGradient id="paint0_linear_0_19" x1="843.88" y1="1" x2="843.88" y2="700.67" gradientUnits="userSpaceOnUse">
<stop stop-color="#FFFFF7" stop-opacity="0.1"/>
<stop offset="0.475783" stop-color="#FFFFF7"/>
</linearGradient>
</defs>
</svg>
